<mxfile host="app.diagrams.net" agent="Mozilla/5.0 (Windows NT 10.0; Win64; x64) AppleWebKit/537.36 (KHTML, like Gecko) Chrome/133.0.0.0 Safari/537.36 Edg/133.0.0.0" version="26.0.15">
  <diagram id="C5RBs43oDa-KdzZeNtuy" name="Page-1">
    <mxGraphModel dx="1943" dy="1034" grid="1" gridSize="10" guides="1" tooltips="1" connect="1" arrows="1" fold="1" page="1" pageScale="1" pageWidth="827" pageHeight="1169" math="1" shadow="0">
      <root>
        <mxCell id="WIyWlLk6GJQsqaUBKTNV-0" />
        <mxCell id="WIyWlLk6GJQsqaUBKTNV-1" parent="WIyWlLk6GJQsqaUBKTNV-0" />
        <mxCell id="PYnfXS_2dmKtieLZj5Gs-141" value="" style="rounded=1;whiteSpace=wrap;html=1;dashed=1;strokeWidth=2;" vertex="1" parent="WIyWlLk6GJQsqaUBKTNV-1">
          <mxGeometry x="676" y="600" width="414" height="50" as="geometry" />
        </mxCell>
        <mxCell id="PYnfXS_2dmKtieLZj5Gs-1" value="" style="shape=image;verticalLabelPosition=bottom;labelBackgroundColor=default;verticalAlign=top;aspect=fixed;imageAspect=0;image=data:image/png,iVBORw0KGgoAAAANSUhEUgAAAMgAAADICAYAAACtWK6eAAAAAXNSR0IArs4c6QAADyNJREFUeF7tnc+LXEsVx+vm9jpLQQSTgEt15/rNoIiLrknArTBv8C3cuXOjkERB8D8QFN4EFy4ECal+CW5Mv6XgSkEEF6/fTnAvLnpS5jT3Tu7rTE9Xnfpxq059G0Immbp1q751PvfUqTpdt1P4QAEocFCBDtpAAShwWAEAAuuAArcoAEBgHlAAgMAGoABPAXgQnm64qhEFAEgjA41u8hQAIDzdcFUjCgCQRgYa3eQpAEB4uuGqRhQAII0MNLrJUwCA8HTDVY0oAEBmHuhHjx7dpyZst9v7Xdfdt9be67ruc/o/a+1msVhsnj9/vpm5mc3eHoBkGnoCYbvdnhMESqnpH9cWjJDQ3/TnU2PMpevFKMdTAIDwdHO6agLFhwMUTtd5FNpBY629XCwWz+BpPJRzLApAHIVyLbZcLk+UUh90XffE9ZqI5TaAJaKaSikAEknP5XL5eCYoDvWAYLlYrVbrSF1sshoAEjjs5DG6rvs40RQqsHVq51FWq9XT0IpavR6AMEee4ourqysCg6ZURX+stU8ACW+IAIinbgMYj9+uJFHgXctn0/f9KYJ4/+ECIB6aaa0JCvIa1X3gRXhDBkAcddNaExg1eY0v9AyAOA70XjEAckS3mmKNI125NMZc8Myk3asAyC1jP8DxutAVKi+rhQfxkuu6MAA5oNuwfEtwSPlcIDXFfygByA2azRCMX+dZWWvXk3wtal2MZeS1MebU3zxwBQDZs4EMnmO3eUfJhq673HsZv+cDNLssYJdP3/cPsMTrotT7ZQDIRJMh5viMJ+WtV0XPkXJMhES6SeBgApCJgFprijliTGnGWtd931+kfnoPYO+SJGlBgaZp1ADsngfSgWTFdwJGhgNP7nDbLKIGeBClVEQ4qgVDa/3AWvuVO3fu/M9a+w9jzH+LsNCZG9E8IBFXrKrciFsulx91XfdjpdTX92zx90qpnxtj/jmzjc56+6YBiRWU17oJp7X+jVLqo9ss0Fp7tlqtzKxWOuPNmwYkxtTKWnvqulw74zi/d+vlcvmrrut+4tKmq6urb758+fLvLmWllWkWkAj7HdXGGw8fPvzGmzdv/uZhzH80xnzfo7yYos0CEuo9avUcZLlnZ2e/sNb+zMeKt9vtl169evUfn2sklG0SkFDvUTMcZLRaa4oplp4G/G1jzJ89r6m+eJOAhHiPWgPyqaVqrcnQfXOztDFmVb3Fe3agOUACl3VFJP1prX+nlPqBj610XfetFy9e/NXnGgllWwSEcq2cE/0mg7wxxjyQMOha6x8qpX7r0Zd/G2O+7FFeTNGmAAnxHrXHHfsWq7X+l1Lqa46W/FNjzC8dy4oq1hog3O+Vi5ha7cUh31VK/cnBmj8xxvgG9A7V1lGkNUBY0ytp3mM0zbOzs+9Za3/99qSWewfMtcr0mZjoNQNIwNKuaCM5OTlZ3L1790fW2u8opb5KxmWt/UvXdX9ocVl3H65mAOHGH1K9R8ynrOS6WgKEM70SF3tINuYUfWsJEMsQUPT0iqFHc5c0AQh3eoXDDprj4b0OtwIIa3nXGNOEPsDgsAJNGADzXF1Mr0BOG2+Y0lpzAnScREgpv+9eKUenpuxeHtr3/Tr1SS2lsNmKB/EGpPX448ih3c28uaoVQLxXsFoGxHVTVULq/zFPBUAOKNRygO7xfZlqv3Z8DIzx9+IBcX0a7gkmJrXd1RDGcowlcdGbqeIBYQw42YroQb8NGsaKn+iHCQC52VqaXeLlrPhJjtcAyM2AtOxBsKAxsQnxgDBjEADiEbxIXtAQDwjzeFHR8+pDts98mIjWCoBgmfdaASxovG8M4gGhLmutMa92mDIxARG9oNEKIN6pJi1+k3C5XD7uuu6JA0vTIgDEU7DiinvsDE/b3lyyImMPhPQSrVMrHoTzfZDmVrI4U1EAUpw/8G8Qc+ogenVmX0Vm/EEnoFT5fhRXK2rCgzCXL8UP/tRImNMrJXkPhPRpAhDmXkhTOVmcFJO3ZxyLDtCbAWRY6uW8A72JaRZ3eiU9/mgKEO40qwUjYK7yKclJis18H2TsaMA0S7QXCXhwiJ9eNeVBAqZZdKlYY+B6jxY8a4uAfPj2JHPaE/H9bPq+P5V2kkdA7NHE9Ko5QAKmWSK9SID3aGYTtYll3r31fs5qFlUh6oAC5ubpKKXo9JKpvTQHSKAXETHVCgjMm9obam6KNT4ZuLvGw/VVr2oFPiCayi5oFpBQI6l5VYu5Yz4+W5qJPZrbB4mVnDfWU+OpggFB+a7b0hMTb1rabC4G2ds4pICd88700WCerFarp75rxrnLHzln17U5YveCbhOgWUCGjUPuvshU06KnHQMcQQ8C6mwLaSXwIHsKRHqy7paAS9xIDFytularxumkq1s8Vq5pD0LixHrCDvskl6VMuQL3OarxkMcMPPT3zQMygYQOdojxmXVDcUgfeRwSW01EqHpJO8ZgApBBxZC8pAMDcdn3/dNc+VsRPeF0aiX667QuAAGQiUoRpyVjrbs3MdFry1ar1dplQHzLDHEGeQx6RVq0T4tLugjSj5hPxKD9pjvR+/3W1tpnIbBQG7fb7XnXdbQ8Tatw0T8tB+X7YsKD7CmSYqpygwXvYBn+/1P621q7WSwWG5qSURvo/7bb7X0CwVp7j/7ddR15iaie4oa2Fb1sHf1pcKRCAHKDQJkgyT3WLvdrcjPwNmEAyAF1JlMZ36M4XQyxuDKYVt08JADkiKkmCNxLg2PWZenSxEAMwhiRBEvAjFYkuQRwIAaJY1gC4xIE4w6mgSmWg0hjkQES2nNIsrzq0ZSgoog33OUDIO5aXZdMvF/CaJHbJQDDTadpKQDir9n1FZHzngJacvTSdd/3F7nSXo62pqICACRwsCbLwTTtYn/5KrAZhy5HEB4oLAAJFHAanwwpIDl2u4+1mnbqnxpjKA8MnwAFAEiAeIcuHWIUAuU8Q2oINYOAIG+xLuX7KAlknaVKAJJY9gksH0Re/dplCndd9zk8RbpBBCDptH2v5iFe2SUg0i8pCXH4eYxd6O/xZ/IKO+9AnoF+IBgoqZF+DskIztjl6m8FQKofQnQgpQIAJKW6qLt6BQBI9UOIDqRUAICkVBd1V68AAKl+CNGBlAoAkJTqou7qFQAg1Q8hOpBSAQDCUHc8VIEupYMVGFXMcgkdCkE3RtKiu/wA5Aatxg09pRTtfuc6TcR91OKUHDcir09XoU1IbEB+UVwA8u583pNhZ7vErNw4SLjVcg1O6Blebrcru1SzgEzS1EvIvi3ZSnaJkEqpZy3mfDUFCKAI5jDK6ZDBrchYQROAtHbGVSb72WUTS0+vFw0IwMiCimhQRAICMLKAsX8TkaCIA6SBkxBnsX6Pm4r6HrwYQAQe7OZhk0UWzfoCoVQKiAAEXiOVeQTXW/20q2pAaj3ALdjsKqug5gPrqgUk1iuOK7O1mptb5KuyjwlaJSAFTamuD1Y4JnQBv0/9ZiqXLlY35aoOEK3160xnTdGAjzvHOxDGU0XGV6W5WERJZfZf7Ta0bZeQGflIotu6XRUkVQGSCY7dAC4Wi2ctpYVPjiQaD7tLmsZfS1xSBSAZgvGqnmo5vFKOvLUaIKkCkFSeo4YBygHDsXukfC9K6WNQPCAp4Ch9UI4Z7Fy/T+XJSx6PogFJAAfekxGBrhTvRSkVkmIB0Vp/HHFlRVR+UAQbD64iwXtRinxlQ5GAxNwELPXJFGyhhVQQOT4pbjOxOEAGwT+LMf7W2lMcQhBDydvriPz1go0x5kH6VrvdoThAIsUdmFK5jX/UUhEzHC6NMRdRG8esrChAYsFR0hOIOS7VXhZxBnBRwiERxQASKe5YG2NOq7UuIQ2P9N2cIuKRYgDRWlPcEZLeADgKAiwSJLNPtYoAJMLcFXAUBMfYlBjTrbkXWmYHJIKIRa16FGinszYpwtR51vGdHZDQwHzuJ8ys1lfJzYedd9r4ZX3m3MuaFZDQpwvgYNnbLBcFTqNn8yKzAhLiPeZ8qsxiYZXfNEKi4yzLvrMBEug9EJRXCExgvDmLF5kNkBDv0ff9g5a+7VchCwebHBiPZPciswAS6D1mXxuXZLC5+xI41cruRWYBJCSVHd4jt0nHv1+IF8m9MDMXIKxdcwTm8Y11rhoDpthZZxDZAQl5ehhjsrd3LgOSft+AaXbWaVZ2gwuYXmUP0KQb6dz943qRnNOsOQCxnIGB9+CoVvY1Acu+2Zb5swISML3KOu8s26xktY7pRbJNs3IDwjqIIadLlWV+5feGm4KSyyZyA8JavcL0qnxD57aQG6znWtHMDQgn/sD0imt9lVyntebYRZY4JBsgAfEHVq8qMXRuM5krm1nikGyAcOeamF5xza6e6wKmWcmPdcoGCPMpgelVPXbObil3uTdHoJ4TEE6AjukV2+zqupCz3JsjUM8JCCcQAyB12Tm7tcwZRvJAvWhAkLnLtrfqLmTGqMkD9SyAcIMwAFKdnbMbzFzlbBsQrGCx7a26C7kP0dQ2ksWDlPp0qM6KBDeYu5LVMiDJAzDB9lZd17iApJ6Gl+xBsAdSnZmHNZiTciICEOYKBQAJs7fqruYcYJ56szCLB+EAkmMTqDoLEt5gAOIxwADEQywhRQGIx0ACEA+xhBQFIB4DCUA8xBJSFIB4DCQA8RBLSFEA4jGQAMRDLCFFAYjHQAIQD7GEFAUgHgMJQDzEElIUgHgMJADxEEtIUQDiMZAAxEMsIUUBiMdAAhAPsYQUbRmQk67rXnuOI75u6ylY7cU530sXkazISWVO3fHajUli+zk5eyK+D0KD6fl0SP5VSokGVnufGA/S5BnfWbJ5aeB8Op86hbl2Q5Lcfg8vkuUhmg0QGlTHziP2kEzAkb7Rg3S73Z53XffklqIba+3FarVap5YqKyATT0KvQTjZ69ym7/tTvN459ZDXUf9wjsH5np0QGJer1epprl5kB2TsGD0p6Oftdns/x5Mgl6C4T1wFBo8ym43MBkhcGVEbFEijAABJoytqFaIAABEykOhGGgUASBpdUasQBQCIkIFEN9IoAEDS6IpahSgAQIQMJLqRRgEAkkZX1CpEAQAiZCDRjTQKAJA0uqJWIQoAECEDiW6kUQCApNEVtQpRAIAIGUh0I40CACSNrqhViAIARMhAohtpFAAgaXRFrUIUACBCBhLdSKMAAEmjK2oVosD/AaEOSEEf0JedAAAAAElFTkSuQmCC;" vertex="1" parent="WIyWlLk6GJQsqaUBKTNV-1">
          <mxGeometry x="270" y="130" width="50" height="50" as="geometry" />
        </mxCell>
        <mxCell id="PYnfXS_2dmKtieLZj5Gs-57" style="rounded=0;orthogonalLoop=1;jettySize=auto;html=1;exitX=0;exitY=0;exitDx=0;exitDy=0;entryX=1;entryY=1;entryDx=0;entryDy=0;" edge="1" parent="WIyWlLk6GJQsqaUBKTNV-1" target="PYnfXS_2dmKtieLZj5Gs-41">
          <mxGeometry relative="1" as="geometry">
            <mxPoint x="350" y="310" as="sourcePoint" />
          </mxGeometry>
        </mxCell>
        <mxCell id="PYnfXS_2dmKtieLZj5Gs-58" style="rounded=0;orthogonalLoop=1;jettySize=auto;html=1;exitX=1;exitY=0;exitDx=0;exitDy=0;entryX=0;entryY=1;entryDx=0;entryDy=0;dashed=1;" edge="1" parent="WIyWlLk6GJQsqaUBKTNV-1">
          <mxGeometry relative="1" as="geometry">
            <mxPoint x="400" y="310" as="sourcePoint" />
            <mxPoint x="430" y="270" as="targetPoint" />
          </mxGeometry>
        </mxCell>
        <mxCell id="PYnfXS_2dmKtieLZj5Gs-13" value="" style="group" vertex="1" connectable="0" parent="WIyWlLk6GJQsqaUBKTNV-1">
          <mxGeometry x="500" y="120" width="60" height="30" as="geometry" />
        </mxCell>
        <mxCell id="PYnfXS_2dmKtieLZj5Gs-14" value="" style="rounded=1;whiteSpace=wrap;html=1;fillColor=#dae8fc;strokeColor=#6c8ebf;" vertex="1" parent="PYnfXS_2dmKtieLZj5Gs-13">
          <mxGeometry width="60" height="30" as="geometry" />
        </mxCell>
        <mxCell id="PYnfXS_2dmKtieLZj5Gs-15" value="" style="ellipse;whiteSpace=wrap;html=1;aspect=fixed;" vertex="1" parent="PYnfXS_2dmKtieLZj5Gs-13">
          <mxGeometry x="5" y="5" width="20" height="20" as="geometry" />
        </mxCell>
        <mxCell id="PYnfXS_2dmKtieLZj5Gs-16" value="" style="ellipse;whiteSpace=wrap;html=1;aspect=fixed;" vertex="1" parent="PYnfXS_2dmKtieLZj5Gs-13">
          <mxGeometry x="35" y="5" width="20" height="20" as="geometry" />
        </mxCell>
        <mxCell id="PYnfXS_2dmKtieLZj5Gs-10" value="" style="rounded=1;whiteSpace=wrap;html=1;fillColor=#f8cecc;strokeColor=#b85450;" vertex="1" parent="WIyWlLk6GJQsqaUBKTNV-1">
          <mxGeometry x="500" y="160" width="60" height="30" as="geometry" />
        </mxCell>
        <mxCell id="PYnfXS_2dmKtieLZj5Gs-8" value="" style="ellipse;whiteSpace=wrap;html=1;aspect=fixed;" vertex="1" parent="WIyWlLk6GJQsqaUBKTNV-1">
          <mxGeometry x="505" y="165" width="20" height="20" as="geometry" />
        </mxCell>
        <mxCell id="PYnfXS_2dmKtieLZj5Gs-9" value="" style="ellipse;whiteSpace=wrap;html=1;aspect=fixed;" vertex="1" parent="WIyWlLk6GJQsqaUBKTNV-1">
          <mxGeometry x="535" y="165" width="20" height="20" as="geometry" />
        </mxCell>
        <mxCell id="PYnfXS_2dmKtieLZj5Gs-17" value="" style="group" vertex="1" connectable="0" parent="WIyWlLk6GJQsqaUBKTNV-1">
          <mxGeometry x="500" y="220" width="60" height="30" as="geometry" />
        </mxCell>
        <mxCell id="PYnfXS_2dmKtieLZj5Gs-18" value="" style="rounded=1;whiteSpace=wrap;html=1;fillColor=#dae8fc;strokeColor=#6c8ebf;" vertex="1" parent="PYnfXS_2dmKtieLZj5Gs-17">
          <mxGeometry width="60" height="30" as="geometry" />
        </mxCell>
        <mxCell id="PYnfXS_2dmKtieLZj5Gs-19" value="" style="ellipse;whiteSpace=wrap;html=1;aspect=fixed;" vertex="1" parent="PYnfXS_2dmKtieLZj5Gs-17">
          <mxGeometry x="5" y="5" width="20" height="20" as="geometry" />
        </mxCell>
        <mxCell id="PYnfXS_2dmKtieLZj5Gs-20" value="" style="ellipse;whiteSpace=wrap;html=1;aspect=fixed;" vertex="1" parent="PYnfXS_2dmKtieLZj5Gs-17">
          <mxGeometry x="35" y="5" width="20" height="20" as="geometry" />
        </mxCell>
        <mxCell id="PYnfXS_2dmKtieLZj5Gs-21" value="" style="rounded=1;whiteSpace=wrap;html=1;fillColor=#f8cecc;strokeColor=#b85450;" vertex="1" parent="WIyWlLk6GJQsqaUBKTNV-1">
          <mxGeometry x="500" y="260" width="60" height="30" as="geometry" />
        </mxCell>
        <mxCell id="PYnfXS_2dmKtieLZj5Gs-22" value="" style="ellipse;whiteSpace=wrap;html=1;aspect=fixed;" vertex="1" parent="WIyWlLk6GJQsqaUBKTNV-1">
          <mxGeometry x="505" y="265" width="20" height="20" as="geometry" />
        </mxCell>
        <mxCell id="PYnfXS_2dmKtieLZj5Gs-23" value="" style="ellipse;whiteSpace=wrap;html=1;aspect=fixed;" vertex="1" parent="WIyWlLk6GJQsqaUBKTNV-1">
          <mxGeometry x="535" y="265" width="20" height="20" as="geometry" />
        </mxCell>
        <mxCell id="PYnfXS_2dmKtieLZj5Gs-24" value="" style="group" vertex="1" connectable="0" parent="WIyWlLk6GJQsqaUBKTNV-1">
          <mxGeometry x="310" y="370" width="60" height="30" as="geometry" />
        </mxCell>
        <mxCell id="PYnfXS_2dmKtieLZj5Gs-25" value="" style="rounded=1;whiteSpace=wrap;html=1;fillColor=#dae8fc;strokeColor=#6c8ebf;" vertex="1" parent="PYnfXS_2dmKtieLZj5Gs-24">
          <mxGeometry width="60" height="30" as="geometry" />
        </mxCell>
        <mxCell id="PYnfXS_2dmKtieLZj5Gs-26" value="" style="ellipse;whiteSpace=wrap;html=1;aspect=fixed;" vertex="1" parent="PYnfXS_2dmKtieLZj5Gs-24">
          <mxGeometry x="5" y="5" width="20" height="20" as="geometry" />
        </mxCell>
        <mxCell id="PYnfXS_2dmKtieLZj5Gs-27" value="" style="ellipse;whiteSpace=wrap;html=1;aspect=fixed;" vertex="1" parent="PYnfXS_2dmKtieLZj5Gs-24">
          <mxGeometry x="35" y="5" width="20" height="20" as="geometry" />
        </mxCell>
        <mxCell id="PYnfXS_2dmKtieLZj5Gs-31" value="" style="group" vertex="1" connectable="0" parent="WIyWlLk6GJQsqaUBKTNV-1">
          <mxGeometry x="390" y="370" width="60" height="30" as="geometry" />
        </mxCell>
        <mxCell id="PYnfXS_2dmKtieLZj5Gs-28" value="" style="rounded=1;whiteSpace=wrap;html=1;fillColor=#f8cecc;strokeColor=#b85450;" vertex="1" parent="PYnfXS_2dmKtieLZj5Gs-31">
          <mxGeometry width="60" height="30" as="geometry" />
        </mxCell>
        <mxCell id="PYnfXS_2dmKtieLZj5Gs-29" value="" style="ellipse;whiteSpace=wrap;html=1;aspect=fixed;" vertex="1" parent="PYnfXS_2dmKtieLZj5Gs-31">
          <mxGeometry x="5" y="5" width="20" height="20" as="geometry" />
        </mxCell>
        <mxCell id="PYnfXS_2dmKtieLZj5Gs-30" value="" style="ellipse;whiteSpace=wrap;html=1;aspect=fixed;" vertex="1" parent="PYnfXS_2dmKtieLZj5Gs-31">
          <mxGeometry x="35" y="5" width="20" height="20" as="geometry" />
        </mxCell>
        <mxCell id="PYnfXS_2dmKtieLZj5Gs-32" value="" style="group" vertex="1" connectable="0" parent="WIyWlLk6GJQsqaUBKTNV-1">
          <mxGeometry x="150" y="370" width="60" height="30" as="geometry" />
        </mxCell>
        <mxCell id="PYnfXS_2dmKtieLZj5Gs-33" value="" style="rounded=1;whiteSpace=wrap;html=1;fillColor=#dae8fc;strokeColor=#6c8ebf;" vertex="1" parent="PYnfXS_2dmKtieLZj5Gs-32">
          <mxGeometry width="60" height="30" as="geometry" />
        </mxCell>
        <mxCell id="PYnfXS_2dmKtieLZj5Gs-34" value="" style="ellipse;whiteSpace=wrap;html=1;aspect=fixed;" vertex="1" parent="PYnfXS_2dmKtieLZj5Gs-32">
          <mxGeometry x="5" y="5" width="20" height="20" as="geometry" />
        </mxCell>
        <mxCell id="PYnfXS_2dmKtieLZj5Gs-35" value="" style="ellipse;whiteSpace=wrap;html=1;aspect=fixed;" vertex="1" parent="PYnfXS_2dmKtieLZj5Gs-32">
          <mxGeometry x="35" y="5" width="20" height="20" as="geometry" />
        </mxCell>
        <mxCell id="PYnfXS_2dmKtieLZj5Gs-36" value="" style="group" vertex="1" connectable="0" parent="WIyWlLk6GJQsqaUBKTNV-1">
          <mxGeometry x="230" y="370" width="60" height="30" as="geometry" />
        </mxCell>
        <mxCell id="PYnfXS_2dmKtieLZj5Gs-37" value="" style="rounded=1;whiteSpace=wrap;html=1;fillColor=#f8cecc;strokeColor=#b85450;" vertex="1" parent="PYnfXS_2dmKtieLZj5Gs-36">
          <mxGeometry width="60" height="30" as="geometry" />
        </mxCell>
        <mxCell id="PYnfXS_2dmKtieLZj5Gs-38" value="" style="ellipse;whiteSpace=wrap;html=1;aspect=fixed;" vertex="1" parent="PYnfXS_2dmKtieLZj5Gs-36">
          <mxGeometry x="5" y="5" width="20" height="20" as="geometry" />
        </mxCell>
        <mxCell id="PYnfXS_2dmKtieLZj5Gs-39" value="" style="ellipse;whiteSpace=wrap;html=1;aspect=fixed;" vertex="1" parent="PYnfXS_2dmKtieLZj5Gs-36">
          <mxGeometry x="35" y="5" width="20" height="20" as="geometry" />
        </mxCell>
        <mxCell id="PYnfXS_2dmKtieLZj5Gs-41" value="" style="shape=image;verticalLabelPosition=bottom;labelBackgroundColor=default;verticalAlign=top;aspect=fixed;imageAspect=0;image=data:image/png,iVBORw0KGgoAAAANSUhEUgAAAMgAAADICAYAAACtWK6eAAAAAXNSR0IArs4c6QAADyNJREFUeF7tnc+LXEsVx+vm9jpLQQSTgEt15/rNoIiLrknArTBv8C3cuXOjkERB8D8QFN4EFy4ECal+CW5Mv6XgSkEEF6/fTnAvLnpS5jT3Tu7rTE9Xnfpxq059G0Immbp1q751PvfUqTpdt1P4QAEocFCBDtpAAShwWAEAAuuAArcoAEBgHlAAgMAGoABPAXgQnm64qhEFAEgjA41u8hQAIDzdcFUjCgCQRgYa3eQpAEB4uuGqRhQAII0MNLrJUwCA8HTDVY0oAEBmHuhHjx7dpyZst9v7Xdfdt9be67ruc/o/a+1msVhsnj9/vpm5mc3eHoBkGnoCYbvdnhMESqnpH9cWjJDQ3/TnU2PMpevFKMdTAIDwdHO6agLFhwMUTtd5FNpBY629XCwWz+BpPJRzLApAHIVyLbZcLk+UUh90XffE9ZqI5TaAJaKaSikAEknP5XL5eCYoDvWAYLlYrVbrSF1sshoAEjjs5DG6rvs40RQqsHVq51FWq9XT0IpavR6AMEee4ourqysCg6ZURX+stU8ACW+IAIinbgMYj9+uJFHgXctn0/f9KYJ4/+ECIB6aaa0JCvIa1X3gRXhDBkAcddNaExg1eY0v9AyAOA70XjEAckS3mmKNI125NMZc8Myk3asAyC1jP8DxutAVKi+rhQfxkuu6MAA5oNuwfEtwSPlcIDXFfygByA2azRCMX+dZWWvXk3wtal2MZeS1MebU3zxwBQDZs4EMnmO3eUfJhq673HsZv+cDNLssYJdP3/cPsMTrotT7ZQDIRJMh5viMJ+WtV0XPkXJMhES6SeBgApCJgFprijliTGnGWtd931+kfnoPYO+SJGlBgaZp1ADsngfSgWTFdwJGhgNP7nDbLKIGeBClVEQ4qgVDa/3AWvuVO3fu/M9a+w9jzH+LsNCZG9E8IBFXrKrciFsulx91XfdjpdTX92zx90qpnxtj/jmzjc56+6YBiRWU17oJp7X+jVLqo9ss0Fp7tlqtzKxWOuPNmwYkxtTKWnvqulw74zi/d+vlcvmrrut+4tKmq6urb758+fLvLmWllWkWkAj7HdXGGw8fPvzGmzdv/uZhzH80xnzfo7yYos0CEuo9avUcZLlnZ2e/sNb+zMeKt9vtl169evUfn2sklG0SkFDvUTMcZLRaa4oplp4G/G1jzJ89r6m+eJOAhHiPWgPyqaVqrcnQfXOztDFmVb3Fe3agOUACl3VFJP1prX+nlPqBj610XfetFy9e/NXnGgllWwSEcq2cE/0mg7wxxjyQMOha6x8qpX7r0Zd/G2O+7FFeTNGmAAnxHrXHHfsWq7X+l1Lqa46W/FNjzC8dy4oq1hog3O+Vi5ha7cUh31VK/cnBmj8xxvgG9A7V1lGkNUBY0ytp3mM0zbOzs+9Za3/99qSWewfMtcr0mZjoNQNIwNKuaCM5OTlZ3L1790fW2u8opb5KxmWt/UvXdX9ocVl3H65mAOHGH1K9R8ynrOS6WgKEM70SF3tINuYUfWsJEMsQUPT0iqFHc5c0AQh3eoXDDprj4b0OtwIIa3nXGNOEPsDgsAJNGADzXF1Mr0BOG2+Y0lpzAnScREgpv+9eKUenpuxeHtr3/Tr1SS2lsNmKB/EGpPX448ih3c28uaoVQLxXsFoGxHVTVULq/zFPBUAOKNRygO7xfZlqv3Z8DIzx9+IBcX0a7gkmJrXd1RDGcowlcdGbqeIBYQw42YroQb8NGsaKn+iHCQC52VqaXeLlrPhJjtcAyM2AtOxBsKAxsQnxgDBjEADiEbxIXtAQDwjzeFHR8+pDts98mIjWCoBgmfdaASxovG8M4gGhLmutMa92mDIxARG9oNEKIN6pJi1+k3C5XD7uuu6JA0vTIgDEU7DiinvsDE/b3lyyImMPhPQSrVMrHoTzfZDmVrI4U1EAUpw/8G8Qc+ogenVmX0Vm/EEnoFT5fhRXK2rCgzCXL8UP/tRImNMrJXkPhPRpAhDmXkhTOVmcFJO3ZxyLDtCbAWRY6uW8A72JaRZ3eiU9/mgKEO40qwUjYK7yKclJis18H2TsaMA0S7QXCXhwiJ9eNeVBAqZZdKlYY+B6jxY8a4uAfPj2JHPaE/H9bPq+P5V2kkdA7NHE9Ko5QAKmWSK9SID3aGYTtYll3r31fs5qFlUh6oAC5ubpKKXo9JKpvTQHSKAXETHVCgjMm9obam6KNT4ZuLvGw/VVr2oFPiCayi5oFpBQI6l5VYu5Yz4+W5qJPZrbB4mVnDfWU+OpggFB+a7b0hMTb1rabC4G2ds4pICd88700WCerFarp75rxrnLHzln17U5YveCbhOgWUCGjUPuvshU06KnHQMcQQ8C6mwLaSXwIHsKRHqy7paAS9xIDFytularxumkq1s8Vq5pD0LixHrCDvskl6VMuQL3OarxkMcMPPT3zQMygYQOdojxmXVDcUgfeRwSW01EqHpJO8ZgApBBxZC8pAMDcdn3/dNc+VsRPeF0aiX667QuAAGQiUoRpyVjrbs3MdFry1ar1dplQHzLDHEGeQx6RVq0T4tLugjSj5hPxKD9pjvR+/3W1tpnIbBQG7fb7XnXdbQ8Tatw0T8tB+X7YsKD7CmSYqpygwXvYBn+/1P621q7WSwWG5qSURvo/7bb7X0CwVp7j/7ddR15iaie4oa2Fb1sHf1pcKRCAHKDQJkgyT3WLvdrcjPwNmEAyAF1JlMZ36M4XQyxuDKYVt08JADkiKkmCNxLg2PWZenSxEAMwhiRBEvAjFYkuQRwIAaJY1gC4xIE4w6mgSmWg0hjkQES2nNIsrzq0ZSgoog33OUDIO5aXZdMvF/CaJHbJQDDTadpKQDir9n1FZHzngJacvTSdd/3F7nSXo62pqICACRwsCbLwTTtYn/5KrAZhy5HEB4oLAAJFHAanwwpIDl2u4+1mnbqnxpjKA8MnwAFAEiAeIcuHWIUAuU8Q2oINYOAIG+xLuX7KAlknaVKAJJY9gksH0Re/dplCndd9zk8RbpBBCDptH2v5iFe2SUg0i8pCXH4eYxd6O/xZ/IKO+9AnoF+IBgoqZF+DskIztjl6m8FQKofQnQgpQIAJKW6qLt6BQBI9UOIDqRUAICkVBd1V68AAKl+CNGBlAoAkJTqou7qFQAg1Q8hOpBSAQDCUHc8VIEupYMVGFXMcgkdCkE3RtKiu/wA5Aatxg09pRTtfuc6TcR91OKUHDcir09XoU1IbEB+UVwA8u583pNhZ7vErNw4SLjVcg1O6Blebrcru1SzgEzS1EvIvi3ZSnaJkEqpZy3mfDUFCKAI5jDK6ZDBrchYQROAtHbGVSb72WUTS0+vFw0IwMiCimhQRAICMLKAsX8TkaCIA6SBkxBnsX6Pm4r6HrwYQAQe7OZhk0UWzfoCoVQKiAAEXiOVeQTXW/20q2pAaj3ALdjsKqug5gPrqgUk1iuOK7O1mptb5KuyjwlaJSAFTamuD1Y4JnQBv0/9ZiqXLlY35aoOEK3160xnTdGAjzvHOxDGU0XGV6W5WERJZfZf7Ta0bZeQGflIotu6XRUkVQGSCY7dAC4Wi2ctpYVPjiQaD7tLmsZfS1xSBSAZgvGqnmo5vFKOvLUaIKkCkFSeo4YBygHDsXukfC9K6WNQPCAp4Ch9UI4Z7Fy/T+XJSx6PogFJAAfekxGBrhTvRSkVkmIB0Vp/HHFlRVR+UAQbD64iwXtRinxlQ5GAxNwELPXJFGyhhVQQOT4pbjOxOEAGwT+LMf7W2lMcQhBDydvriPz1go0x5kH6VrvdoThAIsUdmFK5jX/UUhEzHC6NMRdRG8esrChAYsFR0hOIOS7VXhZxBnBRwiERxQASKe5YG2NOq7UuIQ2P9N2cIuKRYgDRWlPcEZLeADgKAiwSJLNPtYoAJMLcFXAUBMfYlBjTrbkXWmYHJIKIRa16FGinszYpwtR51vGdHZDQwHzuJ8ys1lfJzYedd9r4ZX3m3MuaFZDQpwvgYNnbLBcFTqNn8yKzAhLiPeZ8qsxiYZXfNEKi4yzLvrMBEug9EJRXCExgvDmLF5kNkBDv0ff9g5a+7VchCwebHBiPZPciswAS6D1mXxuXZLC5+xI41cruRWYBJCSVHd4jt0nHv1+IF8m9MDMXIKxdcwTm8Y11rhoDpthZZxDZAQl5ehhjsrd3LgOSft+AaXbWaVZ2gwuYXmUP0KQb6dz943qRnNOsOQCxnIGB9+CoVvY1Acu+2Zb5swISML3KOu8s26xktY7pRbJNs3IDwjqIIadLlWV+5feGm4KSyyZyA8JavcL0qnxD57aQG6znWtHMDQgn/sD0imt9lVyntebYRZY4JBsgAfEHVq8qMXRuM5krm1nikGyAcOeamF5xza6e6wKmWcmPdcoGCPMpgelVPXbObil3uTdHoJ4TEE6AjukV2+zqupCz3JsjUM8JCCcQAyB12Tm7tcwZRvJAvWhAkLnLtrfqLmTGqMkD9SyAcIMwAFKdnbMbzFzlbBsQrGCx7a26C7kP0dQ2ksWDlPp0qM6KBDeYu5LVMiDJAzDB9lZd17iApJ6Gl+xBsAdSnZmHNZiTciICEOYKBQAJs7fqruYcYJ56szCLB+EAkmMTqDoLEt5gAOIxwADEQywhRQGIx0ACEA+xhBQFIB4DCUA8xBJSFIB4DCQA8RBLSFEA4jGQAMRDLCFFAYjHQAIQD7GEFAUgHgMJQDzEElIUgHgMJADxEEtIUQDiMZAAxEMsIUUBiMdAAhAPsYQUbRmQk67rXnuOI75u6ylY7cU530sXkazISWVO3fHajUli+zk5eyK+D0KD6fl0SP5VSokGVnufGA/S5BnfWbJ5aeB8Op86hbl2Q5Lcfg8vkuUhmg0QGlTHziP2kEzAkb7Rg3S73Z53XffklqIba+3FarVap5YqKyATT0KvQTjZ69ym7/tTvN459ZDXUf9wjsH5np0QGJer1epprl5kB2TsGD0p6Oftdns/x5Mgl6C4T1wFBo8ym43MBkhcGVEbFEijAABJoytqFaIAABEykOhGGgUASBpdUasQBQCIkIFEN9IoAEDS6IpahSgAQIQMJLqRRgEAkkZX1CpEAQAiZCDRjTQKAJA0uqJWIQoAECEDiW6kUQCApNEVtQpRAIAIGUh0I40CACSNrqhViAIARMhAohtpFAAgaXRFrUIUACBCBhLdSKMAAEmjK2oVosD/AaEOSEEf0JedAAAAAElFTkSuQmCC;" vertex="1" parent="WIyWlLk6GJQsqaUBKTNV-1">
          <mxGeometry x="270" y="215" width="50" height="50" as="geometry" />
        </mxCell>
        <mxCell id="PYnfXS_2dmKtieLZj5Gs-42" value="" style="group" vertex="1" connectable="0" parent="WIyWlLk6GJQsqaUBKTNV-1">
          <mxGeometry x="190" y="120" width="60" height="30" as="geometry" />
        </mxCell>
        <mxCell id="PYnfXS_2dmKtieLZj5Gs-43" value="" style="rounded=1;whiteSpace=wrap;html=1;fillColor=#dae8fc;strokeColor=#6c8ebf;" vertex="1" parent="PYnfXS_2dmKtieLZj5Gs-42">
          <mxGeometry width="60" height="30" as="geometry" />
        </mxCell>
        <mxCell id="PYnfXS_2dmKtieLZj5Gs-44" value="" style="ellipse;whiteSpace=wrap;html=1;aspect=fixed;" vertex="1" parent="PYnfXS_2dmKtieLZj5Gs-42">
          <mxGeometry x="5" y="5" width="20" height="20" as="geometry" />
        </mxCell>
        <mxCell id="PYnfXS_2dmKtieLZj5Gs-45" value="" style="ellipse;whiteSpace=wrap;html=1;aspect=fixed;" vertex="1" parent="PYnfXS_2dmKtieLZj5Gs-42">
          <mxGeometry x="35" y="5" width="20" height="20" as="geometry" />
        </mxCell>
        <mxCell id="PYnfXS_2dmKtieLZj5Gs-46" value="" style="rounded=1;whiteSpace=wrap;html=1;fillColor=#f8cecc;strokeColor=#b85450;" vertex="1" parent="WIyWlLk6GJQsqaUBKTNV-1">
          <mxGeometry x="190" y="160" width="60" height="30" as="geometry" />
        </mxCell>
        <mxCell id="PYnfXS_2dmKtieLZj5Gs-47" value="" style="ellipse;whiteSpace=wrap;html=1;aspect=fixed;" vertex="1" parent="WIyWlLk6GJQsqaUBKTNV-1">
          <mxGeometry x="195" y="165" width="20" height="20" as="geometry" />
        </mxCell>
        <mxCell id="PYnfXS_2dmKtieLZj5Gs-48" value="" style="ellipse;whiteSpace=wrap;html=1;aspect=fixed;" vertex="1" parent="WIyWlLk6GJQsqaUBKTNV-1">
          <mxGeometry x="225" y="165" width="20" height="20" as="geometry" />
        </mxCell>
        <mxCell id="PYnfXS_2dmKtieLZj5Gs-49" value="" style="group" vertex="1" connectable="0" parent="WIyWlLk6GJQsqaUBKTNV-1">
          <mxGeometry x="190" y="200" width="60" height="30" as="geometry" />
        </mxCell>
        <mxCell id="PYnfXS_2dmKtieLZj5Gs-50" value="" style="rounded=1;whiteSpace=wrap;html=1;fillColor=#dae8fc;strokeColor=#6c8ebf;" vertex="1" parent="PYnfXS_2dmKtieLZj5Gs-49">
          <mxGeometry width="60" height="30" as="geometry" />
        </mxCell>
        <mxCell id="PYnfXS_2dmKtieLZj5Gs-51" value="" style="ellipse;whiteSpace=wrap;html=1;aspect=fixed;" vertex="1" parent="PYnfXS_2dmKtieLZj5Gs-49">
          <mxGeometry x="5" y="5" width="20" height="20" as="geometry" />
        </mxCell>
        <mxCell id="PYnfXS_2dmKtieLZj5Gs-52" value="" style="ellipse;whiteSpace=wrap;html=1;aspect=fixed;" vertex="1" parent="PYnfXS_2dmKtieLZj5Gs-49">
          <mxGeometry x="35" y="5" width="20" height="20" as="geometry" />
        </mxCell>
        <mxCell id="PYnfXS_2dmKtieLZj5Gs-53" value="" style="rounded=1;whiteSpace=wrap;html=1;fillColor=#f8cecc;strokeColor=#b85450;" vertex="1" parent="WIyWlLk6GJQsqaUBKTNV-1">
          <mxGeometry x="190" y="240" width="60" height="30" as="geometry" />
        </mxCell>
        <mxCell id="PYnfXS_2dmKtieLZj5Gs-54" value="" style="ellipse;whiteSpace=wrap;html=1;aspect=fixed;" vertex="1" parent="WIyWlLk6GJQsqaUBKTNV-1">
          <mxGeometry x="195" y="245" width="20" height="20" as="geometry" />
        </mxCell>
        <mxCell id="PYnfXS_2dmKtieLZj5Gs-55" value="" style="ellipse;whiteSpace=wrap;html=1;aspect=fixed;" vertex="1" parent="WIyWlLk6GJQsqaUBKTNV-1">
          <mxGeometry x="225" y="245" width="20" height="20" as="geometry" />
        </mxCell>
        <mxCell id="PYnfXS_2dmKtieLZj5Gs-130" value="" style="group" vertex="1" connectable="0" parent="WIyWlLk6GJQsqaUBKTNV-1">
          <mxGeometry x="975" y="610" width="100.5" height="30" as="geometry" />
        </mxCell>
        <mxCell id="PYnfXS_2dmKtieLZj5Gs-121" value="" style="rounded=1;whiteSpace=wrap;html=1;fillColor=#ffe6cc;strokeColor=#d79b00;container=0;" vertex="1" parent="PYnfXS_2dmKtieLZj5Gs-130">
          <mxGeometry width="36" height="30" as="geometry" />
        </mxCell>
        <mxCell id="PYnfXS_2dmKtieLZj5Gs-122" value="" style="ellipse;whiteSpace=wrap;html=1;aspect=fixed;container=0;" vertex="1" parent="PYnfXS_2dmKtieLZj5Gs-130">
          <mxGeometry x="8" y="5" width="20" height="20" as="geometry" />
        </mxCell>
        <mxCell id="PYnfXS_2dmKtieLZj5Gs-128" value="&lt;font face=&quot;宋体&quot;&gt;&lt;span style=&quot;font-size: 18px;&quot;&gt;ID向量&lt;/span&gt;&lt;/font&gt;" style="text;strokeColor=none;align=center;fillColor=none;html=1;verticalAlign=middle;whiteSpace=wrap;rounded=0;" vertex="1" parent="PYnfXS_2dmKtieLZj5Gs-130">
          <mxGeometry x="38.5" width="62" height="30" as="geometry" />
        </mxCell>
        <mxCell id="PYnfXS_2dmKtieLZj5Gs-131" value="" style="group" vertex="1" connectable="0" parent="WIyWlLk6GJQsqaUBKTNV-1">
          <mxGeometry x="820" y="610" width="116.5" height="30" as="geometry" />
        </mxCell>
        <mxCell id="PYnfXS_2dmKtieLZj5Gs-119" value="" style="rounded=1;whiteSpace=wrap;html=1;fillColor=#f8cecc;strokeColor=#b85450;container=0;" vertex="1" parent="PYnfXS_2dmKtieLZj5Gs-131">
          <mxGeometry width="36" height="30" as="geometry" />
        </mxCell>
        <mxCell id="PYnfXS_2dmKtieLZj5Gs-120" value="" style="ellipse;whiteSpace=wrap;html=1;aspect=fixed;container=0;" vertex="1" parent="PYnfXS_2dmKtieLZj5Gs-131">
          <mxGeometry x="8" y="5" width="20" height="20" as="geometry" />
        </mxCell>
        <mxCell id="PYnfXS_2dmKtieLZj5Gs-126" value="&lt;font face=&quot;宋体&quot;&gt;&lt;span style=&quot;font-size: 18px;&quot;&gt;图像向量&lt;/span&gt;&lt;/font&gt;" style="text;strokeColor=none;align=center;fillColor=none;html=1;verticalAlign=middle;whiteSpace=wrap;rounded=0;" vertex="1" parent="PYnfXS_2dmKtieLZj5Gs-131">
          <mxGeometry x="36" width="80.5" height="30" as="geometry" />
        </mxCell>
        <mxCell id="PYnfXS_2dmKtieLZj5Gs-132" value="" style="group" vertex="1" connectable="0" parent="WIyWlLk6GJQsqaUBKTNV-1">
          <mxGeometry x="690" y="610" width="110" height="30" as="geometry" />
        </mxCell>
        <mxCell id="PYnfXS_2dmKtieLZj5Gs-123" value="" style="group" vertex="1" connectable="0" parent="PYnfXS_2dmKtieLZj5Gs-132">
          <mxGeometry width="36" height="30" as="geometry" />
        </mxCell>
        <mxCell id="PYnfXS_2dmKtieLZj5Gs-114" value="" style="rounded=1;whiteSpace=wrap;html=1;fillColor=#dae8fc;strokeColor=#6c8ebf;container=0;" vertex="1" parent="PYnfXS_2dmKtieLZj5Gs-123">
          <mxGeometry width="36" height="30" as="geometry" />
        </mxCell>
        <mxCell id="PYnfXS_2dmKtieLZj5Gs-115" value="" style="ellipse;whiteSpace=wrap;html=1;aspect=fixed;container=0;" vertex="1" parent="PYnfXS_2dmKtieLZj5Gs-123">
          <mxGeometry x="8" y="5" width="20" height="20" as="geometry" />
        </mxCell>
        <mxCell id="PYnfXS_2dmKtieLZj5Gs-127" value="&lt;font face=&quot;宋体&quot;&gt;&lt;span style=&quot;font-size: 18px;&quot;&gt;文本向量&lt;/span&gt;&lt;/font&gt;" style="text;strokeColor=none;align=center;fillColor=none;html=1;verticalAlign=middle;whiteSpace=wrap;rounded=0;" vertex="1" parent="PYnfXS_2dmKtieLZj5Gs-132">
          <mxGeometry x="36" width="74" height="30" as="geometry" />
        </mxCell>
        <mxCell id="PYnfXS_2dmKtieLZj5Gs-133" value="" style="group" vertex="1" connectable="0" parent="WIyWlLk6GJQsqaUBKTNV-1">
          <mxGeometry x="640" y="146" width="618.5" height="245" as="geometry" />
        </mxCell>
        <mxCell id="PYnfXS_2dmKtieLZj5Gs-110" style="edgeStyle=orthogonalEdgeStyle;rounded=0;orthogonalLoop=1;jettySize=auto;html=1;exitX=0.5;exitY=0;exitDx=0;exitDy=0;entryX=0.5;entryY=1;entryDx=0;entryDy=0;" edge="1" parent="PYnfXS_2dmKtieLZj5Gs-133" source="PYnfXS_2dmKtieLZj5Gs-101" target="PYnfXS_2dmKtieLZj5Gs-96">
          <mxGeometry relative="1" as="geometry" />
        </mxCell>
        <mxCell id="PYnfXS_2dmKtieLZj5Gs-101" value="" style="rounded=1;whiteSpace=wrap;html=1;" vertex="1" parent="PYnfXS_2dmKtieLZj5Gs-133">
          <mxGeometry y="70" width="503" height="130" as="geometry" />
        </mxCell>
        <mxCell id="PYnfXS_2dmKtieLZj5Gs-102" style="edgeStyle=orthogonalEdgeStyle;rounded=0;orthogonalLoop=1;jettySize=auto;html=1;exitX=0.5;exitY=0;exitDx=0;exitDy=0;entryX=0.5;entryY=1;entryDx=0;entryDy=0;" edge="1" parent="PYnfXS_2dmKtieLZj5Gs-133" source="PYnfXS_2dmKtieLZj5Gs-64" target="PYnfXS_2dmKtieLZj5Gs-81">
          <mxGeometry relative="1" as="geometry" />
        </mxCell>
        <mxCell id="PYnfXS_2dmKtieLZj5Gs-64" value="" style="rounded=1;whiteSpace=wrap;html=1;fillColor=#dae8fc;strokeColor=#6c8ebf;container=0;" vertex="1" parent="PYnfXS_2dmKtieLZj5Gs-133">
          <mxGeometry x="23" y="215" width="133" height="30" as="geometry" />
        </mxCell>
        <mxCell id="PYnfXS_2dmKtieLZj5Gs-65" value="" style="ellipse;whiteSpace=wrap;html=1;aspect=fixed;container=0;" vertex="1" parent="PYnfXS_2dmKtieLZj5Gs-133">
          <mxGeometry x="31" y="220" width="20" height="20" as="geometry" />
        </mxCell>
        <mxCell id="PYnfXS_2dmKtieLZj5Gs-66" value="" style="ellipse;whiteSpace=wrap;html=1;aspect=fixed;container=0;" vertex="1" parent="PYnfXS_2dmKtieLZj5Gs-133">
          <mxGeometry x="63" y="220" width="20" height="20" as="geometry" />
        </mxCell>
        <mxCell id="PYnfXS_2dmKtieLZj5Gs-69" value="" style="ellipse;whiteSpace=wrap;html=1;aspect=fixed;container=0;" vertex="1" parent="PYnfXS_2dmKtieLZj5Gs-133">
          <mxGeometry x="94" y="220" width="20" height="20" as="geometry" />
        </mxCell>
        <mxCell id="PYnfXS_2dmKtieLZj5Gs-70" value="" style="ellipse;whiteSpace=wrap;html=1;aspect=fixed;container=0;" vertex="1" parent="PYnfXS_2dmKtieLZj5Gs-133">
          <mxGeometry x="126" y="220" width="20" height="20" as="geometry" />
        </mxCell>
        <mxCell id="PYnfXS_2dmKtieLZj5Gs-103" style="edgeStyle=orthogonalEdgeStyle;rounded=0;orthogonalLoop=1;jettySize=auto;html=1;exitX=0.5;exitY=0;exitDx=0;exitDy=0;entryX=0.5;entryY=1;entryDx=0;entryDy=0;" edge="1" parent="PYnfXS_2dmKtieLZj5Gs-133" source="PYnfXS_2dmKtieLZj5Gs-71" target="PYnfXS_2dmKtieLZj5Gs-86">
          <mxGeometry relative="1" as="geometry" />
        </mxCell>
        <mxCell id="PYnfXS_2dmKtieLZj5Gs-71" value="" style="rounded=1;whiteSpace=wrap;html=1;fillColor=#f8cecc;strokeColor=#b85450;container=0;" vertex="1" parent="PYnfXS_2dmKtieLZj5Gs-133">
          <mxGeometry x="183" y="215" width="133" height="30" as="geometry" />
        </mxCell>
        <mxCell id="PYnfXS_2dmKtieLZj5Gs-72" value="" style="ellipse;whiteSpace=wrap;html=1;aspect=fixed;container=0;" vertex="1" parent="PYnfXS_2dmKtieLZj5Gs-133">
          <mxGeometry x="191" y="220" width="20" height="20" as="geometry" />
        </mxCell>
        <mxCell id="PYnfXS_2dmKtieLZj5Gs-73" value="" style="ellipse;whiteSpace=wrap;html=1;aspect=fixed;container=0;" vertex="1" parent="PYnfXS_2dmKtieLZj5Gs-133">
          <mxGeometry x="223" y="220" width="20" height="20" as="geometry" />
        </mxCell>
        <mxCell id="PYnfXS_2dmKtieLZj5Gs-74" value="" style="ellipse;whiteSpace=wrap;html=1;aspect=fixed;container=0;" vertex="1" parent="PYnfXS_2dmKtieLZj5Gs-133">
          <mxGeometry x="254" y="220" width="20" height="20" as="geometry" />
        </mxCell>
        <mxCell id="PYnfXS_2dmKtieLZj5Gs-75" value="" style="ellipse;whiteSpace=wrap;html=1;aspect=fixed;container=0;" vertex="1" parent="PYnfXS_2dmKtieLZj5Gs-133">
          <mxGeometry x="286" y="220" width="20" height="20" as="geometry" />
        </mxCell>
        <mxCell id="PYnfXS_2dmKtieLZj5Gs-105" style="edgeStyle=orthogonalEdgeStyle;rounded=0;orthogonalLoop=1;jettySize=auto;html=1;exitX=0.5;exitY=0;exitDx=0;exitDy=0;entryX=0.5;entryY=1;entryDx=0;entryDy=0;" edge="1" parent="PYnfXS_2dmKtieLZj5Gs-133" source="PYnfXS_2dmKtieLZj5Gs-76" target="PYnfXS_2dmKtieLZj5Gs-91">
          <mxGeometry relative="1" as="geometry" />
        </mxCell>
        <mxCell id="PYnfXS_2dmKtieLZj5Gs-76" value="" style="rounded=1;whiteSpace=wrap;html=1;fillColor=#ffe6cc;strokeColor=#d79b00;container=0;" vertex="1" parent="PYnfXS_2dmKtieLZj5Gs-133">
          <mxGeometry x="347" y="215" width="133" height="30" as="geometry" />
        </mxCell>
        <mxCell id="PYnfXS_2dmKtieLZj5Gs-77" value="" style="ellipse;whiteSpace=wrap;html=1;aspect=fixed;container=0;" vertex="1" parent="PYnfXS_2dmKtieLZj5Gs-133">
          <mxGeometry x="353" y="220" width="20" height="20" as="geometry" />
        </mxCell>
        <mxCell id="PYnfXS_2dmKtieLZj5Gs-78" value="" style="ellipse;whiteSpace=wrap;html=1;aspect=fixed;container=0;" vertex="1" parent="PYnfXS_2dmKtieLZj5Gs-133">
          <mxGeometry x="385" y="220" width="20" height="20" as="geometry" />
        </mxCell>
        <mxCell id="PYnfXS_2dmKtieLZj5Gs-79" value="" style="ellipse;whiteSpace=wrap;html=1;aspect=fixed;container=0;" vertex="1" parent="PYnfXS_2dmKtieLZj5Gs-133">
          <mxGeometry x="416" y="220" width="20" height="20" as="geometry" />
        </mxCell>
        <mxCell id="PYnfXS_2dmKtieLZj5Gs-80" value="" style="ellipse;whiteSpace=wrap;html=1;aspect=fixed;container=0;" vertex="1" parent="PYnfXS_2dmKtieLZj5Gs-133">
          <mxGeometry x="448" y="220" width="20" height="20" as="geometry" />
        </mxCell>
        <mxCell id="PYnfXS_2dmKtieLZj5Gs-106" style="edgeStyle=orthogonalEdgeStyle;rounded=0;orthogonalLoop=1;jettySize=auto;html=1;exitX=0.5;exitY=0;exitDx=0;exitDy=0;entryX=0.5;entryY=0;entryDx=0;entryDy=0;" edge="1" parent="PYnfXS_2dmKtieLZj5Gs-133" source="PYnfXS_2dmKtieLZj5Gs-81" target="PYnfXS_2dmKtieLZj5Gs-86">
          <mxGeometry relative="1" as="geometry" />
        </mxCell>
        <mxCell id="PYnfXS_2dmKtieLZj5Gs-107" style="edgeStyle=orthogonalEdgeStyle;rounded=0;orthogonalLoop=1;jettySize=auto;html=1;exitX=0.5;exitY=0;exitDx=0;exitDy=0;entryX=0.5;entryY=0;entryDx=0;entryDy=0;" edge="1" parent="PYnfXS_2dmKtieLZj5Gs-133" source="PYnfXS_2dmKtieLZj5Gs-81" target="PYnfXS_2dmKtieLZj5Gs-91">
          <mxGeometry relative="1" as="geometry">
            <Array as="points">
              <mxPoint x="90" y="100" />
              <mxPoint x="414" y="100" />
            </Array>
          </mxGeometry>
        </mxCell>
        <mxCell id="PYnfXS_2dmKtieLZj5Gs-81" value="" style="rounded=1;whiteSpace=wrap;html=1;fillColor=#dae8fc;strokeColor=#6c8ebf;container=0;gradientColor=#7ea6e0;" vertex="1" parent="PYnfXS_2dmKtieLZj5Gs-133">
          <mxGeometry x="23" y="150" width="133" height="30" as="geometry" />
        </mxCell>
        <mxCell id="PYnfXS_2dmKtieLZj5Gs-82" value="" style="ellipse;whiteSpace=wrap;html=1;aspect=fixed;container=0;" vertex="1" parent="PYnfXS_2dmKtieLZj5Gs-133">
          <mxGeometry x="31.5" y="155" width="20" height="20" as="geometry" />
        </mxCell>
        <mxCell id="PYnfXS_2dmKtieLZj5Gs-83" value="" style="ellipse;whiteSpace=wrap;html=1;aspect=fixed;container=0;" vertex="1" parent="PYnfXS_2dmKtieLZj5Gs-133">
          <mxGeometry x="63.5" y="155" width="20" height="20" as="geometry" />
        </mxCell>
        <mxCell id="PYnfXS_2dmKtieLZj5Gs-84" value="" style="ellipse;whiteSpace=wrap;html=1;aspect=fixed;container=0;" vertex="1" parent="PYnfXS_2dmKtieLZj5Gs-133">
          <mxGeometry x="94.5" y="155" width="20" height="20" as="geometry" />
        </mxCell>
        <mxCell id="PYnfXS_2dmKtieLZj5Gs-85" value="" style="ellipse;whiteSpace=wrap;html=1;aspect=fixed;container=0;" vertex="1" parent="PYnfXS_2dmKtieLZj5Gs-133">
          <mxGeometry x="126.5" y="155" width="20" height="20" as="geometry" />
        </mxCell>
        <mxCell id="PYnfXS_2dmKtieLZj5Gs-86" value="" style="rounded=1;whiteSpace=wrap;html=1;fillColor=#f8cecc;strokeColor=#b85450;container=0;gradientColor=#ea6b66;" vertex="1" parent="PYnfXS_2dmKtieLZj5Gs-133">
          <mxGeometry x="183" y="150" width="133" height="30" as="geometry" />
        </mxCell>
        <mxCell id="PYnfXS_2dmKtieLZj5Gs-87" value="" style="ellipse;whiteSpace=wrap;html=1;aspect=fixed;container=0;" vertex="1" parent="PYnfXS_2dmKtieLZj5Gs-133">
          <mxGeometry x="191.5" y="155" width="20" height="20" as="geometry" />
        </mxCell>
        <mxCell id="PYnfXS_2dmKtieLZj5Gs-88" value="" style="ellipse;whiteSpace=wrap;html=1;aspect=fixed;container=0;" vertex="1" parent="PYnfXS_2dmKtieLZj5Gs-133">
          <mxGeometry x="223.5" y="155" width="20" height="20" as="geometry" />
        </mxCell>
        <mxCell id="PYnfXS_2dmKtieLZj5Gs-89" value="" style="ellipse;whiteSpace=wrap;html=1;aspect=fixed;container=0;" vertex="1" parent="PYnfXS_2dmKtieLZj5Gs-133">
          <mxGeometry x="254.5" y="155" width="20" height="20" as="geometry" />
        </mxCell>
        <mxCell id="PYnfXS_2dmKtieLZj5Gs-90" value="" style="ellipse;whiteSpace=wrap;html=1;aspect=fixed;container=0;" vertex="1" parent="PYnfXS_2dmKtieLZj5Gs-133">
          <mxGeometry x="286.5" y="155" width="20" height="20" as="geometry" />
        </mxCell>
        <mxCell id="PYnfXS_2dmKtieLZj5Gs-91" value="" style="rounded=1;whiteSpace=wrap;html=1;fillColor=#ffcd28;strokeColor=#d79b00;container=0;gradientColor=#ffa500;" vertex="1" parent="PYnfXS_2dmKtieLZj5Gs-133">
          <mxGeometry x="347" y="150" width="133" height="30" as="geometry" />
        </mxCell>
        <mxCell id="PYnfXS_2dmKtieLZj5Gs-92" value="" style="ellipse;whiteSpace=wrap;html=1;aspect=fixed;container=0;" vertex="1" parent="PYnfXS_2dmKtieLZj5Gs-133">
          <mxGeometry x="354.5" y="155" width="20" height="20" as="geometry" />
        </mxCell>
        <mxCell id="PYnfXS_2dmKtieLZj5Gs-93" value="" style="ellipse;whiteSpace=wrap;html=1;aspect=fixed;container=0;" vertex="1" parent="PYnfXS_2dmKtieLZj5Gs-133">
          <mxGeometry x="386.5" y="155" width="20" height="20" as="geometry" />
        </mxCell>
        <mxCell id="PYnfXS_2dmKtieLZj5Gs-94" value="" style="ellipse;whiteSpace=wrap;html=1;aspect=fixed;container=0;" vertex="1" parent="PYnfXS_2dmKtieLZj5Gs-133">
          <mxGeometry x="417.5" y="155" width="20" height="20" as="geometry" />
        </mxCell>
        <mxCell id="PYnfXS_2dmKtieLZj5Gs-95" value="" style="ellipse;whiteSpace=wrap;html=1;aspect=fixed;container=0;" vertex="1" parent="PYnfXS_2dmKtieLZj5Gs-133">
          <mxGeometry x="449.5" y="155" width="20" height="20" as="geometry" />
        </mxCell>
        <mxCell id="PYnfXS_2dmKtieLZj5Gs-96" value="" style="rounded=1;whiteSpace=wrap;html=1;fillColor=#e1d5e7;strokeColor=#9673a6;container=0;" vertex="1" parent="PYnfXS_2dmKtieLZj5Gs-133">
          <mxGeometry x="185.5" width="133" height="30" as="geometry" />
        </mxCell>
        <mxCell id="PYnfXS_2dmKtieLZj5Gs-97" value="" style="ellipse;whiteSpace=wrap;html=1;aspect=fixed;container=0;" vertex="1" parent="PYnfXS_2dmKtieLZj5Gs-133">
          <mxGeometry x="193.5" y="5" width="20" height="20" as="geometry" />
        </mxCell>
        <mxCell id="PYnfXS_2dmKtieLZj5Gs-98" value="" style="ellipse;whiteSpace=wrap;html=1;aspect=fixed;container=0;" vertex="1" parent="PYnfXS_2dmKtieLZj5Gs-133">
          <mxGeometry x="225.5" y="5" width="20" height="20" as="geometry" />
        </mxCell>
        <mxCell id="PYnfXS_2dmKtieLZj5Gs-99" value="" style="ellipse;whiteSpace=wrap;html=1;aspect=fixed;container=0;" vertex="1" parent="PYnfXS_2dmKtieLZj5Gs-133">
          <mxGeometry x="256.5" y="5" width="20" height="20" as="geometry" />
        </mxCell>
        <mxCell id="PYnfXS_2dmKtieLZj5Gs-100" value="" style="ellipse;whiteSpace=wrap;html=1;aspect=fixed;container=0;" vertex="1" parent="PYnfXS_2dmKtieLZj5Gs-133">
          <mxGeometry x="288.5" y="5" width="20" height="20" as="geometry" />
        </mxCell>
        <mxCell id="PYnfXS_2dmKtieLZj5Gs-108" value="&lt;font style=&quot;font-size: 18px;&quot; face=&quot;Times New Roman&quot;&gt;$$w_{1}$$&lt;/font&gt;" style="text;strokeColor=none;align=center;fillColor=none;html=1;verticalAlign=middle;whiteSpace=wrap;rounded=0;" vertex="1" parent="PYnfXS_2dmKtieLZj5Gs-133">
          <mxGeometry x="126.5" y="105" width="60" height="30" as="geometry" />
        </mxCell>
        <mxCell id="PYnfXS_2dmKtieLZj5Gs-109" value="&lt;font style=&quot;font-size: 18px;&quot; face=&quot;Times New Roman&quot;&gt;$$w_{2}$$&lt;/font&gt;" style="text;strokeColor=none;align=center;fillColor=none;html=1;verticalAlign=middle;whiteSpace=wrap;rounded=0;" vertex="1" parent="PYnfXS_2dmKtieLZj5Gs-133">
          <mxGeometry x="171.5" y="75" width="60" height="30" as="geometry" />
        </mxCell>
        <mxCell id="PYnfXS_2dmKtieLZj5Gs-111" value="&lt;font face=&quot;宋体&quot;&gt;&lt;span style=&quot;font-size: 18px;&quot;&gt;单模态特征&lt;/span&gt;&lt;/font&gt;" style="text;strokeColor=none;align=center;fillColor=none;html=1;verticalAlign=middle;whiteSpace=wrap;rounded=0;" vertex="1" parent="PYnfXS_2dmKtieLZj5Gs-133">
          <mxGeometry x="508" y="215" width="110.5" height="30" as="geometry" />
        </mxCell>
        <mxCell id="PYnfXS_2dmKtieLZj5Gs-112" value="&lt;font face=&quot;宋体&quot;&gt;&lt;span style=&quot;font-size: 18px;&quot;&gt;融合方法&lt;/span&gt;&lt;/font&gt;" style="text;strokeColor=none;align=center;fillColor=none;html=1;verticalAlign=middle;whiteSpace=wrap;rounded=0;" vertex="1" parent="PYnfXS_2dmKtieLZj5Gs-133">
          <mxGeometry x="508" y="120" width="110.5" height="30" as="geometry" />
        </mxCell>
        <mxCell id="PYnfXS_2dmKtieLZj5Gs-113" value="&lt;font face=&quot;宋体&quot;&gt;&lt;span style=&quot;font-size: 18px;&quot;&gt;融合特征&lt;/span&gt;&lt;/font&gt;" style="text;strokeColor=none;align=center;fillColor=none;html=1;verticalAlign=middle;whiteSpace=wrap;rounded=0;" vertex="1" parent="PYnfXS_2dmKtieLZj5Gs-133">
          <mxGeometry x="508" y="5" width="110.5" height="30" as="geometry" />
        </mxCell>
        <mxCell id="PYnfXS_2dmKtieLZj5Gs-135" style="edgeStyle=orthogonalEdgeStyle;rounded=0;orthogonalLoop=1;jettySize=auto;html=1;exitX=0;exitY=0.5;exitDx=0;exitDy=0;entryX=1;entryY=0.5;entryDx=0;entryDy=0;" edge="1" parent="WIyWlLk6GJQsqaUBKTNV-1" source="PYnfXS_2dmKtieLZj5Gs-134" target="PYnfXS_2dmKtieLZj5Gs-1">
          <mxGeometry relative="1" as="geometry" />
        </mxCell>
        <mxCell id="PYnfXS_2dmKtieLZj5Gs-136" style="edgeStyle=orthogonalEdgeStyle;rounded=0;orthogonalLoop=1;jettySize=auto;html=1;exitX=0.5;exitY=1;exitDx=0;exitDy=0;entryX=0.5;entryY=0;entryDx=0;entryDy=0;dashed=1;" edge="1" parent="WIyWlLk6GJQsqaUBKTNV-1" source="PYnfXS_2dmKtieLZj5Gs-134">
          <mxGeometry relative="1" as="geometry">
            <mxPoint x="455" y="220" as="targetPoint" />
          </mxGeometry>
        </mxCell>
        <mxCell id="PYnfXS_2dmKtieLZj5Gs-134" value="" style="shape=image;verticalLabelPosition=bottom;labelBackgroundColor=default;verticalAlign=top;aspect=fixed;imageAspect=0;image=data:image/png,iVBORw0KGgoAAAANSUhEUgAAAMgAAADICAYAAACtWK6eAAAAAXNSR0IArs4c6QAACuJJREFUeF7tnd952zYURw2pE2SB2pPEbhexX0RriMZyOoREvtgZpLUySZQFMkFFlGAoxZYl6gIiYMA4/r5+fQgIXp4fjy//mVRn/EAAAgcJKNhAAAKHCSAIewcEegggCLsHBBCEfQACbgToIG7cWCoTAgiSSdBsphsBBHHjxlKZEECQTIJmM90IIIgbN5bKhACCZBI0m+lGAEHcuLFUJgROEmQ+n5+Px+NLw0pr/XsmzNjMBAgopb6v1+vV2dmZ+e9sOp22/7f9sRakqqrruq4/KqWubVfGeAi8FQGl1HK9Xt8bYWxkEQtSluVds3Gzt9pA1guBoQg03eVmvV4vJaIcFcR0DK21keN8qAKZBwIREFgppe4nk8ljXy29glRV9aS1bs8x+IHAOyUwq+v6y6FusleQ7uT7ATne6S7BZr0g0J2f3OyT5JUgyMHekymBVV3XV7uSvBKEw6pMdw8229yqeNRa3z+X5IUgXKliL4HA2awoCnM5uP3ZCmIOrUaj0TcAQSB3As1J+8Wmi2wF4dAq992C7d92DaWWk8nkattB5vP55Wg0egIRBCDwk8Cmi7QdZLFYPPDoCLsGBH4RMCfst7e3N60gzcm5doVjbtubZaW37iXr6S4W/CUZuxlTFMVvNuNdxpZl+Z/lcn8/P+GzXFY0HFb7MXVHRR+bZ6/MM4NOT4GYLqJcD6/6bq6Iku0Z5HI1rdkRjz42M0Bdtr9IXlwROXX9+5aHVT/VU+7rmV/+ygWweSKyKIoLH4F3Hc36wUgEkaeRI6uyLM0VWqtOYg6zlMvVq+6O41Ieid1IF2lzDJ1fJvL9yuVIyRwluQjitXsQujx0WFmzsuoirSC2J+ibs3u70uxG00HkvGAlZ+VytdZakKYcTjzlmcAqcVYIIg/Q5XI4gsj5RskKQeQBIkiGrBAkw9C54icPHUHkrOggGbJCkAxDp4PIQ0cQOSs6SIasECTD0Okg8tARRM6KDpIhKwTJMHQ6iDx0BJGzooNkyApBMgydDiIPHUHkrOggGbJCkAxDp4PIQ0cQOSs6SIasECTD0Okg8tARRM6KDpIhKwTJMHQ6iDx0BJGzooNkyApBMgydDiIPHUHkrOggGbJCkAxDp4PIQ0cQOSs6SIasECTD0Okg8tARRM6KDpIhKwTJMHQ6iDx0BJGzooNkyApBMgydDiIPHUHkrOggGbJCkAxDp4PIQ0cQOSs6SIasXAQxn4v2/cnoK6WU1TcHtdb/WuTnNFQp9YfNglpr801DWAmgBWJlPur5p6Cc7RBrQbTWy+bLO5c2K2EsBCIh8A+CRJIEZURJAEGijIWiYiGAILEkQR1REkCQKGOhqFgIIEgsSVBHlAQQJMpYKCoWAggSSxLUESUBBIkyFoqKhQCCxJIEdURJAEGijIWiYiGAILEkQR1REggiyOcPHz58jnLzKQoCPQR+/PjxSSn1yQaS9cOKzeSz5u8J7m1WwlgIxECgLMs7s//a1IIgNrQYmzQBBEk6Por3TQBBfBNm/qQJIEjS8VG8bwII4psw8ydNAEGSjo/ifRNAEN+EmT9pAgiSdHwU75sAgvgmzPxJE0CQpOOjeN8EEMQ3YeZPmgCCJB0fxfsmgCC+CTN/0gQQJOn4KN43AQTxTZj5kyaAIEnHR/G+CSCIb8LMnzQBBEk6Por3TQBBfBNm/qQJIEjS8VG8bwII4psw8ydNAEGSjo/ifRNAEN+EmT9pAggSMD4D23zMtPmoqfmg6ar7uOmKd4YFDMFyVQhiCcx1eFVVT50Y+6ZoZdFa30+n05XrOlhueAIIMjzTVzMuFosHpdS1YFVGjse6rr8gioBWgCEIEgaytlwNolgC8zUcQXyR7eatqupaa/3guBpEcQQ31GIIMhTJA/NYHF71VdKKwsm857D2TI8gnpmXZfmt2bnPB1oNogwEUjoNgkhJOY4bWJBNFYjimIftYghiS8xyvCdBEMUyB9fhCOJKTrhcA9j2CpZw5hfD6Cgu1ATLIIgA0ilDAglCRzklpJ5lEcQT2M20gQVBlIHzRJCBge5O90aCIMpAuSLIQCAPTfPGgiDKifkiyIkAjy0eiSBbUZRS95PJ5PFY3fz7TwII4nlPiEwQRLHMG0EsgdkOj1QQRBEGiSBCUK7DIhdkK0pd1zfT6XTpup3vdTkE8ZxsIoK0FJq/dlyu12sjCn+01e0XCIIguwS4K/+MCIIgyCECMx6v5yqWZz1awCGexfKyHXVdX+V+XkIH8bJr/Zo0ZUHMm1eKorjwjCjq6RHEczyJC3KWexdBEATpJYAg5V0DaGazmyiH34rZnvA5sLLJwvvY5hVEFzlf9qWDeN7FEheEc5CSDuJVkZQFyf3wyuwYdBCveqR7mVcpdcNTvwjiWY80BUGOF5fpOUn3aUlih1grHlp8uTdwiOXTjp/HsCncSef5qwP7AYLkLQhiHMkfQfIUBDGEuSOIEJTrsAgPsbK9aeuSIYK4ULNYJiJBEMMit81QBHGAZrNIBILM+GKVTWJcxXKn5bDkWwnCn886hLVnETrIMBwPzhJaEMQYNlAEGZbnq9kCCsJNPg9ZIogHqM+nDCDIircl+gsRQfyxbWf2+AEdxPCcXZcfz2L55OxBEG7y+QxsZ246iGfYVVU9aa0vB1gNYgwA0XYKBLElZjneBfDOKhDDkvmQw13y42/SLRKYz+eXo9HoyWKR50O5++0IbqjFEGQokj3zOBxmIUaAXCSrQBAJpRPHzOfz89Fo9E0wDWIIIIUcgiCBaFdVda21ftizuvYcg+elAgVhuRoEsQR2ynDTScbjcXtFq5Hl9+atIV9zf/ftKTxDLIsgISizjmQJIEiy0VF4CAIIEoIy60iWAIIkGx2FhyCAICEos45kCSBIstFReAgCCBKCMutIlgCCJBsdhYcggCAhKLOOZAkgSLLRUXgIAggSgjLrSJYAgiQbHYWHIIAgISizjmQJIEiy0VF4CAIIEoIy60iWAIIkGx2FhyCAICEos45kCSBIstFReAgCCBKCMutIloCrIOYNHefSrdZaP97e3t5IxzMOArEQWCwWD0qpa4t6VubFcVaCmG9WTCaTK4uVMBQCURBweDv/Sjm8CO2sea3NxXQ6Na+44QcCSRCweJ/ZdntMM1AObcdMYD7wcoUkSewbFOn+6YqZ6SCHXoLWC5bPg7HfpUCge3/Zg8tb+ZVSN8pspO15yA4Y8+XVr6ar0FFS2GXyqNH84jdbeuANmCIIRVGoVhDHwyzRShgEgRQJbC5GtYKc+Fr/FLefmiHQS6A7x162ggxwmAVuCLwbAs9vZWwFoYu8m3zZkBMJPL+NsRWk6yLWXwE9sRYWh0BUBHafFHkhCIdaUWVFMYEJ7HtK5JUgSBI4FVYXC4FVURQXu8XsFaS7LW8+Vil+iDGWraQOCNgS6Hu+cK8gmxVwf8QWNeNTI3Ds4dteQczGdo+imJN3uklq6VNvLwHzKMlkMnnsG3RUkJ1uYr7JhyjseKkTEH+BWCzIhoi5XzIej++ay2FGFGRJfVfJpH5z+XY0Gn091jFEJ+lSZkYWM3Y8Hp+bL71Kl2McBHwTaA6fvq/Xa/M3Syc9RGvdQXxvGPNDICYCCBJTGtQSHQEEiS4SCoqJAILElAa1REcAQaKLhIJiIoAgMaVBLdERQJDoIqGgmAggSExpUEt0BBAkukgoKCYCCBJTGtQSHQEEiS4SCoqJAILElAa1REfgf4Xn0+uHiEHhAAAAAElFTkSuQmCC;" vertex="1" parent="WIyWlLk6GJQsqaUBKTNV-1">
          <mxGeometry x="430" y="130" width="50" height="50" as="geometry" />
        </mxCell>
        <mxCell id="PYnfXS_2dmKtieLZj5Gs-137" value="" style="shape=image;verticalLabelPosition=bottom;labelBackgroundColor=default;verticalAlign=top;aspect=fixed;imageAspect=0;image=data:image/png,iVBORw0KGgoAAAANSUhEUgAAAMgAAADICAYAAACtWK6eAAAAAXNSR0IArs4c6QAACuJJREFUeF7tnd952zYURw2pE2SB2pPEbhexX0RriMZyOoREvtgZpLUySZQFMkFFlGAoxZYl6gIiYMA4/r5+fQgIXp4fjy//mVRn/EAAAgcJKNhAAAKHCSAIewcEegggCLsHBBCEfQACbgToIG7cWCoTAgiSSdBsphsBBHHjxlKZEECQTIJmM90IIIgbN5bKhACCZBI0m+lGAEHcuLFUJgROEmQ+n5+Px+NLw0pr/XsmzNjMBAgopb6v1+vV2dmZ+e9sOp22/7f9sRakqqrruq4/KqWubVfGeAi8FQGl1HK9Xt8bYWxkEQtSluVds3Gzt9pA1guBoQg03eVmvV4vJaIcFcR0DK21keN8qAKZBwIREFgppe4nk8ljXy29glRV9aS1bs8x+IHAOyUwq+v6y6FusleQ7uT7ATne6S7BZr0g0J2f3OyT5JUgyMHekymBVV3XV7uSvBKEw6pMdw8229yqeNRa3z+X5IUgXKliL4HA2awoCnM5uP3ZCmIOrUaj0TcAQSB3As1J+8Wmi2wF4dAq992C7d92DaWWk8nkattB5vP55Wg0egIRBCDwk8Cmi7QdZLFYPPDoCLsGBH4RMCfst7e3N60gzcm5doVjbtubZaW37iXr6S4W/CUZuxlTFMVvNuNdxpZl+Z/lcn8/P+GzXFY0HFb7MXVHRR+bZ6/MM4NOT4GYLqJcD6/6bq6Iku0Z5HI1rdkRjz42M0Bdtr9IXlwROXX9+5aHVT/VU+7rmV/+ygWweSKyKIoLH4F3Hc36wUgEkaeRI6uyLM0VWqtOYg6zlMvVq+6O41Ieid1IF2lzDJ1fJvL9yuVIyRwluQjitXsQujx0WFmzsuoirSC2J+ibs3u70uxG00HkvGAlZ+VytdZakKYcTjzlmcAqcVYIIg/Q5XI4gsj5RskKQeQBIkiGrBAkw9C54icPHUHkrOggGbJCkAxDp4PIQ0cQOSs6SIasECTD0Okg8tARRM6KDpIhKwTJMHQ6iDx0BJGzooNkyApBMgydDiIPHUHkrOggGbJCkAxDp4PIQ0cQOSs6SIasECTD0Okg8tARRM6KDpIhKwTJMHQ6iDx0BJGzooNkyApBMgydDiIPHUHkrOggGbJCkAxDp4PIQ0cQOSs6SIasECTD0Okg8tARRM6KDpIhKwTJMHQ6iDx0BJGzooNkyApBMgydDiIPHUHkrOggGbJCkAxDp4PIQ0cQOSs6SIasXAQxn4v2/cnoK6WU1TcHtdb/WuTnNFQp9YfNglpr801DWAmgBWJlPur5p6Cc7RBrQbTWy+bLO5c2K2EsBCIh8A+CRJIEZURJAEGijIWiYiGAILEkQR1REkCQKGOhqFgIIEgsSVBHlAQQJMpYKCoWAggSSxLUESUBBIkyFoqKhQCCxJIEdURJAEGijIWiYiGAILEkQR1REggiyOcPHz58jnLzKQoCPQR+/PjxSSn1yQaS9cOKzeSz5u8J7m1WwlgIxECgLMs7s//a1IIgNrQYmzQBBEk6Por3TQBBfBNm/qQJIEjS8VG8bwII4psw8ydNAEGSjo/ifRNAEN+EmT9pAgiSdHwU75sAgvgmzPxJE0CQpOOjeN8EEMQ3YeZPmgCCJB0fxfsmgCC+CTN/0gQQJOn4KN43AQTxTZj5kyaAIEnHR/G+CSCIb8LMnzQBBEk6Por3TQBBfBNm/qQJIEjS8VG8bwII4psw8ydNAEGSjo/ifRNAEN+EmT9pAggSMD4D23zMtPmoqfmg6ar7uOmKd4YFDMFyVQhiCcx1eFVVT50Y+6ZoZdFa30+n05XrOlhueAIIMjzTVzMuFosHpdS1YFVGjse6rr8gioBWgCEIEgaytlwNolgC8zUcQXyR7eatqupaa/3guBpEcQQ31GIIMhTJA/NYHF71VdKKwsm857D2TI8gnpmXZfmt2bnPB1oNogwEUjoNgkhJOY4bWJBNFYjimIftYghiS8xyvCdBEMUyB9fhCOJKTrhcA9j2CpZw5hfD6Cgu1ATLIIgA0ilDAglCRzklpJ5lEcQT2M20gQVBlIHzRJCBge5O90aCIMpAuSLIQCAPTfPGgiDKifkiyIkAjy0eiSBbUZRS95PJ5PFY3fz7TwII4nlPiEwQRLHMG0EsgdkOj1QQRBEGiSBCUK7DIhdkK0pd1zfT6XTpup3vdTkE8ZxsIoK0FJq/dlyu12sjCn+01e0XCIIguwS4K/+MCIIgyCECMx6v5yqWZz1awCGexfKyHXVdX+V+XkIH8bJr/Zo0ZUHMm1eKorjwjCjq6RHEczyJC3KWexdBEATpJYAg5V0DaGazmyiH34rZnvA5sLLJwvvY5hVEFzlf9qWDeN7FEheEc5CSDuJVkZQFyf3wyuwYdBCveqR7mVcpdcNTvwjiWY80BUGOF5fpOUn3aUlih1grHlp8uTdwiOXTjp/HsCncSef5qwP7AYLkLQhiHMkfQfIUBDGEuSOIEJTrsAgPsbK9aeuSIYK4ULNYJiJBEMMit81QBHGAZrNIBILM+GKVTWJcxXKn5bDkWwnCn886hLVnETrIMBwPzhJaEMQYNlAEGZbnq9kCCsJNPg9ZIogHqM+nDCDIircl+gsRQfyxbWf2+AEdxPCcXZcfz2L55OxBEG7y+QxsZ246iGfYVVU9aa0vB1gNYgwA0XYKBLElZjneBfDOKhDDkvmQw13y42/SLRKYz+eXo9HoyWKR50O5++0IbqjFEGQokj3zOBxmIUaAXCSrQBAJpRPHzOfz89Fo9E0wDWIIIIUcgiCBaFdVda21ftizuvYcg+elAgVhuRoEsQR2ynDTScbjcXtFq5Hl9+atIV9zf/ftKTxDLIsgISizjmQJIEiy0VF4CAIIEoIy60iWAIIkGx2FhyCAICEos45kCSBIstFReAgCCBKCMutIlgCCJBsdhYcggCAhKLOOZAkgSLLRUXgIAggSgjLrSJYAgiQbHYWHIIAgISizjmQJIEiy0VF4CAIIEoIy60iWAIIkGx2FhyCAICEos45kCSBIstFReAgCCBKCMutIloCrIOYNHefSrdZaP97e3t5IxzMOArEQWCwWD0qpa4t6VubFcVaCmG9WTCaTK4uVMBQCURBweDv/Sjm8CO2sea3NxXQ6Na+44QcCSRCweJ/ZdntMM1AObcdMYD7wcoUkSewbFOn+6YqZ6SCHXoLWC5bPg7HfpUCge3/Zg8tb+ZVSN8pspO15yA4Y8+XVr6ar0FFS2GXyqNH84jdbeuANmCIIRVGoVhDHwyzRShgEgRQJbC5GtYKc+Fr/FLefmiHQS6A7x162ggxwmAVuCLwbAs9vZWwFoYu8m3zZkBMJPL+NsRWk6yLWXwE9sRYWh0BUBHafFHkhCIdaUWVFMYEJ7HtK5JUgSBI4FVYXC4FVURQXu8XsFaS7LW8+Vil+iDGWraQOCNgS6Hu+cK8gmxVwf8QWNeNTI3Ds4dteQczGdo+imJN3uklq6VNvLwHzKMlkMnnsG3RUkJ1uYr7JhyjseKkTEH+BWCzIhoi5XzIej++ay2FGFGRJfVfJpH5z+XY0Gn091jFEJ+lSZkYWM3Y8Hp+bL71Kl2McBHwTaA6fvq/Xa/M3Syc9RGvdQXxvGPNDICYCCBJTGtQSHQEEiS4SCoqJAILElAa1REcAQaKLhIJiIoAgMaVBLdERQJDoIqGgmAggSExpUEt0BBAkukgoKCYCCBJTGtQSHQEEiS4SCoqJAILElAa1REfgf4Xn0+uHiEHhAAAAAElFTkSuQmCC;" vertex="1" parent="WIyWlLk6GJQsqaUBKTNV-1">
          <mxGeometry x="430" y="220" width="50" height="50" as="geometry" />
        </mxCell>
        <mxCell id="PYnfXS_2dmKtieLZj5Gs-138" value="" style="shape=image;verticalLabelPosition=bottom;labelBackgroundColor=default;verticalAlign=top;aspect=fixed;imageAspect=0;image=data:image/png,iVBORw0KGgoAAAANSUhEUgAAAMgAAADICAYAAACtWK6eAAAAAXNSR0IArs4c6QAACuJJREFUeF7tnd952zYURw2pE2SB2pPEbhexX0RriMZyOoREvtgZpLUySZQFMkFFlGAoxZYl6gIiYMA4/r5+fQgIXp4fjy//mVRn/EAAAgcJKNhAAAKHCSAIewcEegggCLsHBBCEfQACbgToIG7cWCoTAgiSSdBsphsBBHHjxlKZEECQTIJmM90IIIgbN5bKhACCZBI0m+lGAEHcuLFUJgROEmQ+n5+Px+NLw0pr/XsmzNjMBAgopb6v1+vV2dmZ+e9sOp22/7f9sRakqqrruq4/KqWubVfGeAi8FQGl1HK9Xt8bYWxkEQtSluVds3Gzt9pA1guBoQg03eVmvV4vJaIcFcR0DK21keN8qAKZBwIREFgppe4nk8ljXy29glRV9aS1bs8x+IHAOyUwq+v6y6FusleQ7uT7ATne6S7BZr0g0J2f3OyT5JUgyMHekymBVV3XV7uSvBKEw6pMdw8229yqeNRa3z+X5IUgXKliL4HA2awoCnM5uP3ZCmIOrUaj0TcAQSB3As1J+8Wmi2wF4dAq992C7d92DaWWk8nkattB5vP55Wg0egIRBCDwk8Cmi7QdZLFYPPDoCLsGBH4RMCfst7e3N60gzcm5doVjbtubZaW37iXr6S4W/CUZuxlTFMVvNuNdxpZl+Z/lcn8/P+GzXFY0HFb7MXVHRR+bZ6/MM4NOT4GYLqJcD6/6bq6Iku0Z5HI1rdkRjz42M0Bdtr9IXlwROXX9+5aHVT/VU+7rmV/+ygWweSKyKIoLH4F3Hc36wUgEkaeRI6uyLM0VWqtOYg6zlMvVq+6O41Ieid1IF2lzDJ1fJvL9yuVIyRwluQjitXsQujx0WFmzsuoirSC2J+ibs3u70uxG00HkvGAlZ+VytdZakKYcTjzlmcAqcVYIIg/Q5XI4gsj5RskKQeQBIkiGrBAkw9C54icPHUHkrOggGbJCkAxDp4PIQ0cQOSs6SIasECTD0Okg8tARRM6KDpIhKwTJMHQ6iDx0BJGzooNkyApBMgydDiIPHUHkrOggGbJCkAxDp4PIQ0cQOSs6SIasECTD0Okg8tARRM6KDpIhKwTJMHQ6iDx0BJGzooNkyApBMgydDiIPHUHkrOggGbJCkAxDp4PIQ0cQOSs6SIasECTD0Okg8tARRM6KDpIhKwTJMHQ6iDx0BJGzooNkyApBMgydDiIPHUHkrOggGbJCkAxDp4PIQ0cQOSs6SIasXAQxn4v2/cnoK6WU1TcHtdb/WuTnNFQp9YfNglpr801DWAmgBWJlPur5p6Cc7RBrQbTWy+bLO5c2K2EsBCIh8A+CRJIEZURJAEGijIWiYiGAILEkQR1REkCQKGOhqFgIIEgsSVBHlAQQJMpYKCoWAggSSxLUESUBBIkyFoqKhQCCxJIEdURJAEGijIWiYiGAILEkQR1REggiyOcPHz58jnLzKQoCPQR+/PjxSSn1yQaS9cOKzeSz5u8J7m1WwlgIxECgLMs7s//a1IIgNrQYmzQBBEk6Por3TQBBfBNm/qQJIEjS8VG8bwII4psw8ydNAEGSjo/ifRNAEN+EmT9pAgiSdHwU75sAgvgmzPxJE0CQpOOjeN8EEMQ3YeZPmgCCJB0fxfsmgCC+CTN/0gQQJOn4KN43AQTxTZj5kyaAIEnHR/G+CSCIb8LMnzQBBEk6Por3TQBBfBNm/qQJIEjS8VG8bwII4psw8ydNAEGSjo/ifRNAEN+EmT9pAggSMD4D23zMtPmoqfmg6ar7uOmKd4YFDMFyVQhiCcx1eFVVT50Y+6ZoZdFa30+n05XrOlhueAIIMjzTVzMuFosHpdS1YFVGjse6rr8gioBWgCEIEgaytlwNolgC8zUcQXyR7eatqupaa/3guBpEcQQ31GIIMhTJA/NYHF71VdKKwsm857D2TI8gnpmXZfmt2bnPB1oNogwEUjoNgkhJOY4bWJBNFYjimIftYghiS8xyvCdBEMUyB9fhCOJKTrhcA9j2CpZw5hfD6Cgu1ATLIIgA0ilDAglCRzklpJ5lEcQT2M20gQVBlIHzRJCBge5O90aCIMpAuSLIQCAPTfPGgiDKifkiyIkAjy0eiSBbUZRS95PJ5PFY3fz7TwII4nlPiEwQRLHMG0EsgdkOj1QQRBEGiSBCUK7DIhdkK0pd1zfT6XTpup3vdTkE8ZxsIoK0FJq/dlyu12sjCn+01e0XCIIguwS4K/+MCIIgyCECMx6v5yqWZz1awCGexfKyHXVdX+V+XkIH8bJr/Zo0ZUHMm1eKorjwjCjq6RHEczyJC3KWexdBEATpJYAg5V0DaGazmyiH34rZnvA5sLLJwvvY5hVEFzlf9qWDeN7FEheEc5CSDuJVkZQFyf3wyuwYdBCveqR7mVcpdcNTvwjiWY80BUGOF5fpOUn3aUlih1grHlp8uTdwiOXTjp/HsCncSef5qwP7AYLkLQhiHMkfQfIUBDGEuSOIEJTrsAgPsbK9aeuSIYK4ULNYJiJBEMMit81QBHGAZrNIBILM+GKVTWJcxXKn5bDkWwnCn886hLVnETrIMBwPzhJaEMQYNlAEGZbnq9kCCsJNPg9ZIogHqM+nDCDIircl+gsRQfyxbWf2+AEdxPCcXZcfz2L55OxBEG7y+QxsZ246iGfYVVU9aa0vB1gNYgwA0XYKBLElZjneBfDOKhDDkvmQw13y42/SLRKYz+eXo9HoyWKR50O5++0IbqjFEGQokj3zOBxmIUaAXCSrQBAJpRPHzOfz89Fo9E0wDWIIIIUcgiCBaFdVda21ftizuvYcg+elAgVhuRoEsQR2ynDTScbjcXtFq5Hl9+atIV9zf/ftKTxDLIsgISizjmQJIEiy0VF4CAIIEoIy60iWAIIkGx2FhyCAICEos45kCSBIstFReAgCCBKCMutIlgCCJBsdhYcggCAhKLOOZAkgSLLRUXgIAggSgjLrSJYAgiQbHYWHIIAgISizjmQJIEiy0VF4CAIIEoIy60iWAIIkGx2FhyCAICEos45kCSBIstFReAgCCBKCMutIloCrIOYNHefSrdZaP97e3t5IxzMOArEQWCwWD0qpa4t6VubFcVaCmG9WTCaTK4uVMBQCURBweDv/Sjm8CO2sea3NxXQ6Na+44QcCSRCweJ/ZdntMM1AObcdMYD7wcoUkSewbFOn+6YqZ6SCHXoLWC5bPg7HfpUCge3/Zg8tb+ZVSN8pspO15yA4Y8+XVr6ar0FFS2GXyqNH84jdbeuANmCIIRVGoVhDHwyzRShgEgRQJbC5GtYKc+Fr/FLefmiHQS6A7x162ggxwmAVuCLwbAs9vZWwFoYu8m3zZkBMJPL+NsRWk6yLWXwE9sRYWh0BUBHafFHkhCIdaUWVFMYEJ7HtK5JUgSBI4FVYXC4FVURQXu8XsFaS7LW8+Vil+iDGWraQOCNgS6Hu+cK8gmxVwf8QWNeNTI3Ds4dteQczGdo+imJN3uklq6VNvLwHzKMlkMnnsG3RUkJ1uYr7JhyjseKkTEH+BWCzIhoi5XzIej++ay2FGFGRJfVfJpH5z+XY0Gn091jFEJ+lSZkYWM3Y8Hp+bL71Kl2McBHwTaA6fvq/Xa/M3Syc9RGvdQXxvGPNDICYCCBJTGtQSHQEEiS4SCoqJAILElAa1REcAQaKLhIJiIoAgMaVBLdERQJDoIqGgmAggSExpUEt0BBAkukgoKCYCCBJTGtQSHQEEiS4SCoqJAILElAa1REfgf4Xn0+uHiEHhAAAAAElFTkSuQmCC;" vertex="1" parent="WIyWlLk6GJQsqaUBKTNV-1">
          <mxGeometry x="350" y="310" width="50" height="50" as="geometry" />
        </mxCell>
        <mxCell id="PYnfXS_2dmKtieLZj5Gs-140" style="rounded=0;orthogonalLoop=1;jettySize=auto;html=1;exitX=1;exitY=0;exitDx=0;exitDy=0;entryX=0;entryY=1;entryDx=0;entryDy=0;" edge="1" parent="WIyWlLk6GJQsqaUBKTNV-1" source="PYnfXS_2dmKtieLZj5Gs-139" target="PYnfXS_2dmKtieLZj5Gs-41">
          <mxGeometry relative="1" as="geometry" />
        </mxCell>
        <mxCell id="PYnfXS_2dmKtieLZj5Gs-139" value="" style="shape=image;verticalLabelPosition=bottom;labelBackgroundColor=default;verticalAlign=top;aspect=fixed;imageAspect=0;image=data:image/png,iVBORw0KGgoAAAANSUhEUgAAAMgAAADICAYAAACtWK6eAAAAAXNSR0IArs4c6QAACuJJREFUeF7tnd952zYURw2pE2SB2pPEbhexX0RriMZyOoREvtgZpLUySZQFMkFFlGAoxZYl6gIiYMA4/r5+fQgIXp4fjy//mVRn/EAAAgcJKNhAAAKHCSAIewcEegggCLsHBBCEfQACbgToIG7cWCoTAgiSSdBsphsBBHHjxlKZEECQTIJmM90IIIgbN5bKhACCZBI0m+lGAEHcuLFUJgROEmQ+n5+Px+NLw0pr/XsmzNjMBAgopb6v1+vV2dmZ+e9sOp22/7f9sRakqqrruq4/KqWubVfGeAi8FQGl1HK9Xt8bYWxkEQtSluVds3Gzt9pA1guBoQg03eVmvV4vJaIcFcR0DK21keN8qAKZBwIREFgppe4nk8ljXy29glRV9aS1bs8x+IHAOyUwq+v6y6FusleQ7uT7ATne6S7BZr0g0J2f3OyT5JUgyMHekymBVV3XV7uSvBKEw6pMdw8229yqeNRa3z+X5IUgXKliL4HA2awoCnM5uP3ZCmIOrUaj0TcAQSB3As1J+8Wmi2wF4dAq992C7d92DaWWk8nkattB5vP55Wg0egIRBCDwk8Cmi7QdZLFYPPDoCLsGBH4RMCfst7e3N60gzcm5doVjbtubZaW37iXr6S4W/CUZuxlTFMVvNuNdxpZl+Z/lcn8/P+GzXFY0HFb7MXVHRR+bZ6/MM4NOT4GYLqJcD6/6bq6Iku0Z5HI1rdkRjz42M0Bdtr9IXlwROXX9+5aHVT/VU+7rmV/+ygWweSKyKIoLH4F3Hc36wUgEkaeRI6uyLM0VWqtOYg6zlMvVq+6O41Ieid1IF2lzDJ1fJvL9yuVIyRwluQjitXsQujx0WFmzsuoirSC2J+ibs3u70uxG00HkvGAlZ+VytdZakKYcTjzlmcAqcVYIIg/Q5XI4gsj5RskKQeQBIkiGrBAkw9C54icPHUHkrOggGbJCkAxDp4PIQ0cQOSs6SIasECTD0Okg8tARRM6KDpIhKwTJMHQ6iDx0BJGzooNkyApBMgydDiIPHUHkrOggGbJCkAxDp4PIQ0cQOSs6SIasECTD0Okg8tARRM6KDpIhKwTJMHQ6iDx0BJGzooNkyApBMgydDiIPHUHkrOggGbJCkAxDp4PIQ0cQOSs6SIasECTD0Okg8tARRM6KDpIhKwTJMHQ6iDx0BJGzooNkyApBMgydDiIPHUHkrOggGbJCkAxDp4PIQ0cQOSs6SIasXAQxn4v2/cnoK6WU1TcHtdb/WuTnNFQp9YfNglpr801DWAmgBWJlPur5p6Cc7RBrQbTWy+bLO5c2K2EsBCIh8A+CRJIEZURJAEGijIWiYiGAILEkQR1REkCQKGOhqFgIIEgsSVBHlAQQJMpYKCoWAggSSxLUESUBBIkyFoqKhQCCxJIEdURJAEGijIWiYiGAILEkQR1REggiyOcPHz58jnLzKQoCPQR+/PjxSSn1yQaS9cOKzeSz5u8J7m1WwlgIxECgLMs7s//a1IIgNrQYmzQBBEk6Por3TQBBfBNm/qQJIEjS8VG8bwII4psw8ydNAEGSjo/ifRNAEN+EmT9pAgiSdHwU75sAgvgmzPxJE0CQpOOjeN8EEMQ3YeZPmgCCJB0fxfsmgCC+CTN/0gQQJOn4KN43AQTxTZj5kyaAIEnHR/G+CSCIb8LMnzQBBEk6Por3TQBBfBNm/qQJIEjS8VG8bwII4psw8ydNAEGSjo/ifRNAEN+EmT9pAggSMD4D23zMtPmoqfmg6ar7uOmKd4YFDMFyVQhiCcx1eFVVT50Y+6ZoZdFa30+n05XrOlhueAIIMjzTVzMuFosHpdS1YFVGjse6rr8gioBWgCEIEgaytlwNolgC8zUcQXyR7eatqupaa/3guBpEcQQ31GIIMhTJA/NYHF71VdKKwsm857D2TI8gnpmXZfmt2bnPB1oNogwEUjoNgkhJOY4bWJBNFYjimIftYghiS8xyvCdBEMUyB9fhCOJKTrhcA9j2CpZw5hfD6Cgu1ATLIIgA0ilDAglCRzklpJ5lEcQT2M20gQVBlIHzRJCBge5O90aCIMpAuSLIQCAPTfPGgiDKifkiyIkAjy0eiSBbUZRS95PJ5PFY3fz7TwII4nlPiEwQRLHMG0EsgdkOj1QQRBEGiSBCUK7DIhdkK0pd1zfT6XTpup3vdTkE8ZxsIoK0FJq/dlyu12sjCn+01e0XCIIguwS4K/+MCIIgyCECMx6v5yqWZz1awCGexfKyHXVdX+V+XkIH8bJr/Zo0ZUHMm1eKorjwjCjq6RHEczyJC3KWexdBEATpJYAg5V0DaGazmyiH34rZnvA5sLLJwvvY5hVEFzlf9qWDeN7FEheEc5CSDuJVkZQFyf3wyuwYdBCveqR7mVcpdcNTvwjiWY80BUGOF5fpOUn3aUlih1grHlp8uTdwiOXTjp/HsCncSef5qwP7AYLkLQhiHMkfQfIUBDGEuSOIEJTrsAgPsbK9aeuSIYK4ULNYJiJBEMMit81QBHGAZrNIBILM+GKVTWJcxXKn5bDkWwnCn886hLVnETrIMBwPzhJaEMQYNlAEGZbnq9kCCsJNPg9ZIogHqM+nDCDIircl+gsRQfyxbWf2+AEdxPCcXZcfz2L55OxBEG7y+QxsZ246iGfYVVU9aa0vB1gNYgwA0XYKBLElZjneBfDOKhDDkvmQw13y42/SLRKYz+eXo9HoyWKR50O5++0IbqjFEGQokj3zOBxmIUaAXCSrQBAJpRPHzOfz89Fo9E0wDWIIIIUcgiCBaFdVda21ftizuvYcg+elAgVhuRoEsQR2ynDTScbjcXtFq5Hl9+atIV9zf/ftKTxDLIsgISizjmQJIEiy0VF4CAIIEoIy60iWAIIkGx2FhyCAICEos45kCSBIstFReAgCCBKCMutIlgCCJBsdhYcggCAhKLOOZAkgSLLRUXgIAggSgjLrSJYAgiQbHYWHIIAgISizjmQJIEiy0VF4CAIIEoIy60iWAIIkGx2FhyCAICEos45kCSBIstFReAgCCBKCMutIloCrIOYNHefSrdZaP97e3t5IxzMOArEQWCwWD0qpa4t6VubFcVaCmG9WTCaTK4uVMBQCURBweDv/Sjm8CO2sea3NxXQ6Na+44QcCSRCweJ/ZdntMM1AObcdMYD7wcoUkSewbFOn+6YqZ6SCHXoLWC5bPg7HfpUCge3/Zg8tb+ZVSN8pspO15yA4Y8+XVr6ar0FFS2GXyqNH84jdbeuANmCIIRVGoVhDHwyzRShgEgRQJbC5GtYKc+Fr/FLefmiHQS6A7x162ggxwmAVuCLwbAs9vZWwFoYu8m3zZkBMJPL+NsRWk6yLWXwE9sRYWh0BUBHafFHkhCIdaUWVFMYEJ7HtK5JUgSBI4FVYXC4FVURQXu8XsFaS7LW8+Vil+iDGWraQOCNgS6Hu+cK8gmxVwf8QWNeNTI3Ds4dteQczGdo+imJN3uklq6VNvLwHzKMlkMnnsG3RUkJ1uYr7JhyjseKkTEH+BWCzIhoi5XzIej++ay2FGFGRJfVfJpH5z+XY0Gn091jFEJ+lSZkYWM3Y8Hp+bL71Kl2McBHwTaA6fvq/Xa/M3Syc9RGvdQXxvGPNDICYCCBJTGtQSHQEEiS4SCoqJAILElAa1REcAQaKLhIJiIoAgMaVBLdERQJDoIqGgmAggSExpUEt0BBAkukgoKCYCCBJTGtQSHQEEiS4SCoqJAILElAa1REfgf4Xn0+uHiEHhAAAAAElFTkSuQmCC;" vertex="1" parent="WIyWlLk6GJQsqaUBKTNV-1">
          <mxGeometry x="190" y="310" width="50" height="50" as="geometry" />
        </mxCell>
      </root>
    </mxGraphModel>
  </diagram>
</mxfile>
